<?xml version="1.0" encoding="utf-8"?>
<!-- Generator: Adobe Illustrator 16.0.0, SVG Export Plug-In . SVG Version: 6.00 Build 0)  -->
<!DOCTYPE svg PUBLIC "-//W3C//DTD SVG 1.1//EN" "http://www.w3.org/Graphics/SVG/1.1/DTD/svg11.dtd">
<svg version="1.1" id="Warstwa_1" xmlns="http://www.w3.org/2000/svg" xmlns:xlink="http://www.w3.org/1999/xlink" x="0px" y="0px"
	 width="49.1px" height="34.051px" viewBox="0.999 1.077 49.1 34.051" enable-background="new 0.999 1.077 49.1 34.051"
	 xml:space="preserve">
<path fill="#29235C" d="M32.973,29.909"/>
<path fill="#FFFFFF" d="M50.099,18.136c-0.01,0-0.01,0.01-0.01,0.01c-0.01,0.01-0.021,0.01-0.03,0.021
	c-1.05,0.66-3.21,2.689-5.318,4.979c-2.5,1.311-7.892,3.79-13.512,4.021c0.472-0.311,0.95-0.649,1.42-1.061
	c4.37-3.75,8.2-7.55,8.432-7.779c-0.67-0.41-1.352-1-2.062-1.82c-1.51-1.72-4.12-4.99-7.91-7.45c-0.55-0.35-2.77-1.64-3.329-1.91
	c-2.641-1.22-5.859-1.62-9.17-1.37c-1.85,0.11-2.399,0.33-5.04,0.851l-1.96,0.399c1.131-1.06,2.48-2.27,4.641-3.37
	c14.27-7.289,22.438,2.931,24.76,5.45c2.41,2.65,4.05,4.46,5.771,6.261C48.719,17.396,50.099,18.136,50.099,18.136z"/>
<path fill="#FFFFFF" d="M40.619,27.776c-1.29,1.45-2.802,2.91-5.92,4.69c-13.521,7.699-23.73-3.591-25.011-5.16
	c-2.27-2.771-3.83-4.63-5.56-6.431c-1.95-2.029-3.13-2.779-3.13-2.779s0.01,0,0.01-0.011c0.01-0.01,0.02-0.021,0.03-0.021
	c0.72-0.66,3.76-3.7,5.84-5.939c3.54-1.561,8.31-3.05,12.729-3.21c-0.489,0.31-0.96,0.67-1.439,1.09
	c-4.49,3.899-8.391,7.92-8.391,7.92c-0.04-0.021-0.069-0.04-0.109-0.062c0.649,0.421,1.3,1.011,2,1.79
	c1.74,1.971,5.05,6.011,9.89,8.49c2.59,1.58,5.431,2.26,8.34,2.26C33.499,30.406,37.199,29.375,40.619,27.776z"/>
<circle fill="#FFFFFF" cx="25.55" cy="18.052" r="6.248"/>
</svg>
