<?xml version="1.0" encoding="utf-8"?>
<!-- Generator: Adobe Illustrator 16.0.0, SVG Export Plug-In . SVG Version: 6.00 Build 0)  -->
<!DOCTYPE svg PUBLIC "-//W3C//DTD SVG 1.1//EN" "http://www.w3.org/Graphics/SVG/1.1/DTD/svg11.dtd">
<svg version="1.1" id="Warstwa_1" xmlns="http://www.w3.org/2000/svg" xmlns:xlink="http://www.w3.org/1999/xlink" x="0px" y="0px"
	 width="252px" height="36.129px" viewBox="0 0 252 36.129" enable-background="new 0 0 252 36.129" xml:space="preserve">
<g>
	<g>
		<path fill="#1F1B37" d="M67.799,1.147H64.78l-6.699,15.334h2.267c0.228,0,0.443-0.038,0.665-0.101
			c0.221-0.07,0.43-0.165,0.62-0.292c0.196-0.126,0.367-0.266,0.519-0.43c0.158-0.165,0.272-0.349,0.36-0.538l0.729-1.703h6.098
			l0.747,1.703c0.095,0.215,0.215,0.405,0.368,0.576c0.145,0.165,0.316,0.304,0.5,0.424c0.184,0.121,0.386,0.209,0.608,0.266
			c0.215,0.063,0.443,0.095,0.677,0.095h2.254L67.799,1.147z M64.641,10.245l1.349-3.209c0.057-0.146,0.108-0.279,0.146-0.405
			c0.039-0.133,0.07-0.247,0.088-0.348c0.032-0.121,0.051-0.228,0.064-0.33c0.006,0.102,0.024,0.209,0.057,0.323
			c0.019,0.102,0.051,0.216,0.082,0.342c0.039,0.126,0.089,0.266,0.152,0.418l1.336,3.209H64.641z"/>
		<path fill="#1F1B37" d="M79.481,13.208V1.147H75.98v15.334h9.554v-3.273H79.481z"/>
		<path fill="#1F1B37" d="M91.332,13.208V1.147h-3.5v15.334h9.554v-3.273H91.332z"/>
		<path fill="#1F1B37" d="M100.07,1.147v15.334h3.514V1.147H100.07z"/>
		<path fill="#1F1B37" d="M115.157,1.147h-3.02l-6.699,15.334h2.267c0.221,0,0.443-0.038,0.665-0.101
			c0.222-0.07,0.431-0.165,0.621-0.292c0.196-0.126,0.367-0.266,0.519-0.43c0.152-0.165,0.272-0.349,0.361-0.538l0.728-1.703h6.097
			l0.747,1.703c0.095,0.215,0.215,0.405,0.367,0.576c0.146,0.165,0.317,0.304,0.5,0.424c0.184,0.121,0.386,0.209,0.607,0.266
			c0.215,0.063,0.443,0.095,0.678,0.095h2.254L115.157,1.147z M111.999,10.245l1.348-3.209c0.057-0.146,0.108-0.279,0.145-0.405
			c0.039-0.133,0.07-0.247,0.089-0.348c0.032-0.121,0.051-0.228,0.063-0.33c0.006,0.102,0.025,0.209,0.057,0.323
			c0.02,0.102,0.051,0.216,0.083,0.342c0.039,0.126,0.089,0.266,0.152,0.418l1.336,3.209H111.999z"/>
		<path fill="#1F1B37" d="M134.164,1.147v9.681c0-0.019-0.014-0.07-0.032-0.158c-0.019-0.083-0.05-0.184-0.095-0.304
			c-0.045-0.12-0.096-0.241-0.152-0.38c-0.057-0.133-0.126-0.26-0.201-0.374l-5.363-7.851c-0.139-0.209-0.342-0.361-0.607-0.462
			s-0.563-0.152-0.904-0.152h-3.445v15.334h3.482V5.876l7.332,10.604h3.477V1.147H134.164z"/>
		<path fill="#1F1B37" d="M153.044,12.138c-0.26-0.114-0.583-0.171-0.95-0.171c-0.48,0-0.904,0.127-1.285,0.38
			c-0.348,0.24-0.729,0.424-1.127,0.563c-0.404,0.139-0.836,0.208-1.291,0.208c-0.596,0-1.152-0.114-1.678-0.335
			c-0.525-0.222-0.995-0.532-1.395-0.924c-0.398-0.392-0.715-0.854-0.948-1.374c-0.233-0.526-0.354-1.083-0.354-1.678
			c0-0.589,0.121-1.152,0.354-1.671c0.233-0.525,0.551-0.981,0.948-1.374c0.398-0.387,0.867-0.697,1.395-0.924
			c0.523-0.229,1.082-0.342,1.678-0.342c0.448,0,0.881,0.07,1.278,0.203c0.405,0.14,0.785,0.329,1.14,0.57
			c0.387,0.266,0.816,0.393,1.285,0.393c0.35,0,0.665-0.057,0.938-0.184c0.285-0.127,0.525-0.298,0.74-0.506l0.912-0.912
			c-0.442-0.468-0.912-0.893-1.412-1.272c-0.494-0.38-1.006-0.696-1.537-0.962c-0.532-0.266-1.077-0.468-1.642-0.607
			c-0.563-0.146-1.133-0.215-1.702-0.215c-0.723,0-1.412,0.088-2.084,0.278c-0.67,0.184-1.298,0.443-1.886,0.785
			c-0.583,0.335-1.114,0.747-1.597,1.215c-0.475,0.475-0.887,1-1.229,1.583c-0.342,0.576-0.607,1.197-0.798,1.868
			c-0.19,0.665-0.278,1.355-0.278,2.077c0,0.722,0.088,1.412,0.278,2.083c0.19,0.665,0.456,1.292,0.798,1.868
			c0.342,0.576,0.754,1.102,1.229,1.577c0.48,0.475,1.014,0.88,1.597,1.222c0.588,0.336,1.216,0.595,1.886,0.785
			c0.672,0.184,1.361,0.279,2.084,0.279c0.569,0,1.139-0.076,1.702-0.215c0.563-0.146,1.108-0.348,1.642-0.614
			c0.531-0.26,1.043-0.583,1.537-0.962c0.5-0.374,0.97-0.798,1.412-1.266l-0.912-0.912C153.55,12.429,153.311,12.258,153.044,12.138
			z"/>
		<path fill="#1F1B37" d="M167.648,4.426V1.147h-10.205v15.334h10.205v-3.273h-6.711v-2.824h5.459V7.111h-5.459V4.426H167.648z"/>
		<path fill="#1F1B37" d="M191.227,1.147c-0.233,0-0.461,0.032-0.688,0.095c-0.229,0.057-0.438,0.146-0.627,0.259
			c-0.196,0.114-0.367,0.26-0.513,0.431c-0.152,0.171-0.267,0.361-0.336,0.576l-2.666,7.673c-0.045,0.107-0.088,0.241-0.121,0.386
			c-0.03,0.146-0.057,0.285-0.082,0.412c-0.024,0.152-0.043,0.304-0.051,0.462c-0.019-0.165-0.043-0.323-0.076-0.468
			c-0.024-0.133-0.057-0.266-0.088-0.412c-0.03-0.139-0.069-0.272-0.103-0.38l-2.685-7.673c-0.074-0.196-0.184-0.386-0.321-0.551
			c-0.146-0.165-0.312-0.31-0.501-0.431c-0.189-0.114-0.393-0.209-0.627-0.279c-0.229-0.063-0.463-0.101-0.702-0.101h-3.83V16.48
			h3.501V6.25l3.932,10.231h3.032l3.862-10.231v10.231h3.495V1.147H191.227z"/>
		<path fill="#1F1B37" d="M208.947,4.426V1.147h-10.205v15.334h10.205v-3.273h-6.704v-2.824h5.45V7.111h-5.45V4.426H208.947z"/>
		<path fill="#1F1B37" d="M225.732,6.782c-0.185-0.652-0.443-1.26-0.779-1.83c-0.335-0.57-0.741-1.083-1.217-1.551
			c-0.475-0.469-0.992-0.867-1.563-1.203c-0.576-0.335-1.189-0.595-1.849-0.771c-0.658-0.184-1.343-0.279-2.046-0.279h-6.344v15.334
			h6.344c0.703,0,1.388-0.095,2.046-0.272c0.657-0.184,1.271-0.443,1.849-0.772c0.57-0.329,1.09-0.728,1.563-1.197
			c0.476-0.468,0.882-0.988,1.217-1.551c0.336-0.57,0.596-1.178,0.779-1.83c0.188-0.652,0.277-1.335,0.277-2.039
			C226.012,8.111,225.922,7.434,225.732,6.782z M222.161,10.435c-0.228,0.506-0.538,0.943-0.925,1.323
			c-0.393,0.374-0.842,0.671-1.35,0.887c-0.512,0.215-1.044,0.329-1.607,0.329h-2.848V4.661h2.848c0.563,0,1.097,0.108,1.607,0.323
			c0.508,0.215,0.957,0.513,1.35,0.893c0.387,0.38,0.697,0.823,0.925,1.33s0.342,1.044,0.342,1.614
			C222.503,9.391,222.389,9.928,222.161,10.435z"/>
		<path fill="#1F1B37" d="M229.221,1.147v15.334h3.508V1.147H229.221z"/>
		<path fill="#1F1B37" d="M244.309,1.147h-3.021l-6.698,15.334h2.268c0.221,0,0.441-0.038,0.664-0.101
			c0.221-0.07,0.431-0.165,0.619-0.292c0.197-0.126,0.367-0.266,0.521-0.43c0.157-0.165,0.272-0.349,0.36-0.538l0.729-1.703h6.098
			l0.748,1.703c0.094,0.215,0.215,0.405,0.366,0.576c0.146,0.165,0.315,0.304,0.5,0.424c0.185,0.121,0.386,0.209,0.601,0.266
			c0.224,0.063,0.451,0.095,0.686,0.095H251L244.309,1.147z M241.148,10.245l1.349-3.209c0.058-0.146,0.103-0.279,0.146-0.405
			c0.039-0.133,0.07-0.247,0.09-0.348c0.031-0.121,0.051-0.228,0.063-0.33c0.006,0.102,0.025,0.209,0.057,0.323
			c0.021,0.102,0.051,0.216,0.082,0.342c0.039,0.126,0.09,0.266,0.152,0.418l1.336,3.209H241.148z"/>
	</g>
	<path fill="#1F1B37" d="M68.097,24.954c-0.203-0.47-0.475-0.875-0.823-1.223c-0.348-0.35-0.76-0.627-1.228-0.83
		c-0.469-0.202-0.962-0.304-1.495-0.304H60.17v12.264h1.69v-4.559h2.69c0.532,0,1.026-0.103,1.495-0.304
		c0.468-0.203,0.88-0.48,1.228-0.83c0.348-0.349,0.62-0.752,0.823-1.222c0.203-0.469,0.304-0.969,0.304-1.501
		C68.401,25.92,68.3,25.42,68.097,24.954z M66.54,27.295c-0.108,0.26-0.266,0.486-0.462,0.684c-0.197,0.195-0.424,0.348-0.69,0.462
		c-0.259,0.106-0.538,0.164-0.836,0.164h-2.69v-4.312h2.69c0.298,0,0.577,0.058,0.836,0.166c0.266,0.112,0.494,0.266,0.69,0.461
		c0.196,0.195,0.354,0.432,0.462,0.689c0.114,0.26,0.171,0.545,0.171,0.836C66.711,26.75,66.654,27.029,66.54,27.295z"/>
	<path fill="#1F1B37" d="M82.102,27.061c-0.146-0.532-0.354-1.032-0.633-1.494c-0.272-0.469-0.601-0.893-0.981-1.271
		c-0.374-0.381-0.798-0.703-1.267-0.977c-0.461-0.277-0.962-0.486-1.494-0.633c-0.539-0.152-1.089-0.223-1.666-0.223
		c-0.576,0-1.133,0.07-1.665,0.223c-0.532,0.146-1.032,0.354-1.5,0.633c-0.462,0.271-0.887,0.596-1.267,0.977
		c-0.379,0.379-0.702,0.804-0.975,1.271c-0.278,0.462-0.487,0.962-0.64,1.494c-0.145,0.531-0.221,1.089-0.221,1.665
		c0,0.867,0.165,1.678,0.495,2.438c0.329,0.76,0.778,1.424,1.341,1.987c0.57,0.569,1.234,1.021,1.995,1.349
		c0.754,0.322,1.571,0.487,2.438,0.487c0.576,0,1.127-0.069,1.666-0.222c0.532-0.146,1.032-0.361,1.494-0.633
		c0.469-0.272,0.893-0.603,1.267-0.981c0.38-0.374,0.709-0.798,0.981-1.267c0.279-0.463,0.488-0.963,0.633-1.494
		c0.152-0.532,0.222-1.089,0.222-1.665S82.254,27.592,82.102,27.061z M80.272,30.504c-0.241,0.559-0.57,1.039-0.982,1.451
		c-0.412,0.418-0.898,0.739-1.449,0.98c-0.551,0.24-1.146,0.359-1.779,0.359s-1.228-0.119-1.779-0.359
		c-0.557-0.241-1.038-0.563-1.45-0.98c-0.418-0.412-0.741-0.894-0.981-1.451c-0.241-0.551-0.361-1.146-0.361-1.778
		s0.12-1.229,0.361-1.779c0.241-0.558,0.563-1.038,0.981-1.448c0.412-0.418,0.893-0.742,1.45-0.981
		c0.551-0.241,1.146-0.361,1.779-0.361s1.229,0.12,1.779,0.361c0.551,0.239,1.038,0.563,1.449,0.981
		c0.412,0.41,0.741,0.892,0.982,1.448c0.241,0.552,0.361,1.146,0.361,1.779C80.634,29.36,80.513,29.956,80.272,30.504z"/>
	<path fill="#1F1B37" d="M86.299,33.17V22.597h-1.696v12.264h6.99v-1.69H86.299L86.299,33.17z"/>
	<path fill="#1F1B37" d="M99.165,28.547c-0.17-0.131-0.348-0.246-0.532-0.34c-0.189-0.097-0.386-0.19-0.576-0.272
		c-0.196-0.083-0.393-0.158-0.595-0.229c-0.203-0.068-0.406-0.146-0.602-0.228c-0.406-0.14-0.754-0.267-1.032-0.386
		c-0.285-0.121-0.513-0.248-0.69-0.381c-0.178-0.133-0.305-0.285-0.387-0.455c-0.082-0.172-0.121-0.381-0.121-0.627
		c0-0.209,0.051-0.406,0.158-0.59c0.108-0.178,0.253-0.336,0.431-0.469c0.177-0.127,0.385-0.234,0.62-0.304
		c0.24-0.076,0.494-0.114,0.76-0.114c0.203,0,0.412,0.051,0.639,0.146c0.235,0.095,0.457,0.222,0.678,0.387
		c0.209,0.133,0.45,0.195,0.722,0.195c0.311,0,0.589-0.102,0.83-0.311l0.437-0.322c-0.158-0.189-0.348-0.387-0.583-0.602
		c-0.235-0.209-0.5-0.404-0.791-0.583c-0.292-0.171-0.595-0.323-0.931-0.431c-0.33-0.114-0.665-0.172-1-0.172
		c-0.462,0-0.912,0.069-1.349,0.209c-0.443,0.146-0.835,0.35-1.178,0.621c-0.341,0.271-0.613,0.606-0.822,1
		s-0.316,0.842-0.316,1.342c0,0.546,0.095,1.008,0.291,1.375c0.19,0.367,0.443,0.678,0.76,0.931c0.317,0.253,0.678,0.47,1.077,0.646
		c0.405,0.178,0.816,0.35,1.241,0.521c0.285,0.114,0.569,0.222,0.868,0.329c0.291,0.107,0.557,0.24,0.797,0.393
		c0.235,0.158,0.431,0.342,0.577,0.559c0.146,0.215,0.222,0.492,0.222,0.822c0,0.342-0.076,0.646-0.234,0.905
		c-0.159,0.261-0.354,0.476-0.602,0.646c-0.241,0.179-0.513,0.312-0.804,0.4c-0.297,0.094-0.588,0.139-0.867,0.139
		c-0.342,0-0.646-0.051-0.912-0.151c-0.266-0.103-0.506-0.241-0.722-0.425l-0.14-0.108c-0.253-0.271-0.569-0.403-0.943-0.403
		c-0.228,0-0.456,0.063-0.67,0.194L92.46,32.62c0.031,0.07,0.076,0.151,0.133,0.254c0.063,0.106,0.133,0.223,0.209,0.349
		c0.089,0.127,0.184,0.254,0.298,0.386c0.114,0.135,0.247,0.268,0.398,0.398c0.734,0.658,1.659,0.981,2.761,0.981
		c0.551,0,1.083-0.088,1.589-0.272c0.513-0.188,0.956-0.448,1.349-0.784c0.386-0.329,0.697-0.728,0.918-1.188
		c0.234-0.464,0.348-0.977,0.348-1.539C100.462,30.093,100.032,29.208,99.165,28.547z"/>
	<path fill="#1F1B37" d="M102.704,22.597v12.264h1.69V22.597H102.704z M112.093,34.715l-4.387-5.92
		c-0.057-0.082-0.114-0.141-0.171-0.17c-0.05-0.039-0.075-0.059-0.088-0.07c0.013-0.008,0.039-0.025,0.088-0.063
		c0.058-0.039,0.115-0.096,0.171-0.178l4.217-5.718h-1.165c-0.33,0-0.627,0.063-0.88,0.196c-0.253,0.127-0.462,0.315-0.627,0.576
		l-3.431,4.652c-0.076,0.102-0.146,0.189-0.222,0.26c-0.07,0.063-0.133,0.12-0.196,0.158c-0.058,0.044-0.108,0.068-0.146,0.089
		c-0.044,0.019-0.07,0.025-0.07,0.025c0,0.006,0.025,0.02,0.07,0.038c0.038,0.019,0.088,0.051,0.146,0.089
		c0.063,0.037,0.126,0.095,0.196,0.157c0.076,0.07,0.146,0.146,0.222,0.246l3.71,5.002c0.171,0.261,0.373,0.451,0.633,0.582
		c0.253,0.129,0.545,0.19,0.874,0.19h1.165L112.093,34.715z"/>
	<path fill="#1F1B37" d="M119.031,22.597h-1.651l-5.287,12.118l-0.063,0.146h0.975c0.272,0,0.513-0.069,0.734-0.215
		c0.222-0.14,0.38-0.329,0.481-0.569l0.848-1.949h6.268l0.854,1.949c0.107,0.247,0.266,0.437,0.488,0.575
		c0.215,0.14,0.456,0.209,0.722,0.209h0.981L119.031,22.597z M115.815,30.429l2.235-5.128c0.038-0.103,0.07-0.215,0.095-0.33
		c0.025-0.12,0.044-0.253,0.057-0.398c0.013,0.284,0.069,0.532,0.165,0.729l2.229,5.128L115.815,30.429L115.815,30.429z"/>
	<path fill="#29235C" d="M32.973,29.909"/>
	<g>
		
			<linearGradient id="SVGID_1_" gradientUnits="userSpaceOnUse" x1="242.8174" y1="-246.8027" x2="204.3291" y2="-246.8027" gradientTransform="matrix(1 0 0 -1 -192.7207 -236.6807)">
			<stop  offset="0" style="stop-color:#00A2CD"/>
			<stop  offset="1" style="stop-color:#29235C"/>
		</linearGradient>
		<path fill="url(#SVGID_1_)" d="M13.572,6.625c2.636-0.524,3.187-0.739,5.042-0.845c3.304-0.258,6.525,0.143,9.164,1.369
			C28.34,7.414,30.56,8.705,31.11,9.06c3.789,2.459,6.396,5.725,7.906,7.448c0.716,0.82,1.395,1.407,2.065,1.82
			c1.743,1.065,3.492,0.936,6.074,0.592c1.776-0.237,2.808-0.715,2.931-0.773c0.006,0,0.006-0.007,0.012-0.007
			c0,0-1.381-0.742-3.317-2.769c-1.723-1.8-3.36-3.617-5.776-6.258C38.691,6.585,30.516-3.634,16.251,3.657
			C14.093,4.76,12.74,5.968,11.61,7.026L13.572,6.625z"/>
		
			<linearGradient id="SVGID_2_" gradientUnits="userSpaceOnUse" x1="233.3428" y1="-262.6885" x2="193.7197" y2="-262.6885" gradientTransform="matrix(1 0 0 -1 -192.7207 -236.6807)">
			<stop  offset="0" style="stop-color:#00A2CD"/>
			<stop  offset="1" style="stop-color:#29235C"/>
		</linearGradient>
		<path fill="url(#SVGID_2_)" d="M29.896,30.402c3.602,0,7.307-1.026,10.727-2.62c-1.291,1.445-2.807,2.905-5.925,4.68
			c-13.522,7.707-23.726-3.582-25.01-5.156c-2.265-2.776-3.833-4.635-5.563-6.436C2.181,18.849,1,18.094,1,18.094
			s0.006,0,0.014-0.007c0.115-0.071,1.129-0.626,2.885-0.942c2.239-0.401,3.969-0.446,5.751,0.709c0.006,0,0.012,0.006,0.019,0.013
			c0.646,0.42,1.304,1.006,1.995,1.789c1.742,1.97,5.054,6.009,9.9,8.487C24.145,29.731,26.985,30.402,29.896,30.402z"/>
		<path fill="#F39200" d="M19.606,8.917c-0.483,0.31-0.96,0.665-1.438,1.084c-4.486,3.905-8.391,7.926-8.391,7.926
			c-0.04-0.021-0.071-0.039-0.111-0.059c-0.006-0.006-0.012-0.013-0.019-0.013c-1.949-1.078-3.931-1.033-5.913-0.594
			c-1.607,0.349-2.608,0.775-2.724,0.827c0.671-0.6,3.763-3.692,5.866-5.964C10.423,10.563,15.186,9.072,19.606,8.917z"/>
		<path fill="#1F1B37" d="M50.085,18.147c-1.034,0.639-3.215,2.686-5.344,4.996c-2.504,1.316-7.895,3.795-13.51,4.021
			c0.471-0.304,0.949-0.651,1.414-1.052c4.37-3.757,8.204-7.552,8.436-7.785c0.007-0.007,0.013-0.013,0.013-0.013
			c1.711,0.949,4.674,0.833,6.313,0.484C49.027,18.457,49.976,18.18,50.085,18.147z"/>
		<circle fill="#1F1B37" cx="25.55" cy="18.052" r="6.248"/>
	</g>
</g>
</svg>
