<?xml version="1.0" encoding="utf-8"?>
<!-- Generator: Adobe Illustrator 16.0.0, SVG Export Plug-In . SVG Version: 6.00 Build 0)  -->
<!DOCTYPE svg PUBLIC "-//W3C//DTD SVG 1.1//EN" "http://www.w3.org/Graphics/SVG/1.1/DTD/svg11.dtd">
<svg version="1.1" id="Warstwa_1" xmlns="http://www.w3.org/2000/svg" xmlns:xlink="http://www.w3.org/1999/xlink" x="0px" y="0px"
	 width="255.656px" height="40.564px" viewBox="0 0 255.656 40.564" enable-background="new 0 0 255.656 40.564"
	 xml:space="preserve">
<g>
	<g>
		<path fill="#FFFFFF" d="M69.627,3.364h-3.019l-6.699,15.334h2.267c0.229,0,0.443-0.038,0.665-0.101
			c0.223-0.07,0.432-0.165,0.62-0.292c0.196-0.126,0.367-0.268,0.521-0.432c0.158-0.165,0.271-0.349,0.358-0.538l0.729-1.703h6.098
			l0.747,1.703c0.095,0.217,0.215,0.405,0.368,0.576c0.145,0.165,0.316,0.304,0.5,0.424c0.184,0.121,0.386,0.209,0.608,0.268
			c0.215,0.063,0.441,0.095,0.677,0.095h2.254L69.627,3.364z M66.469,12.462l1.349-3.209c0.057-0.146,0.106-0.277,0.146-0.403
			c0.039-0.135,0.07-0.247,0.09-0.35c0.03-0.121,0.051-0.228,0.063-0.33c0.006,0.104,0.024,0.209,0.057,0.323
			c0.021,0.104,0.053,0.216,0.082,0.342c0.039,0.126,0.091,0.268,0.152,0.418l1.336,3.209H66.469z"/>
		<path fill="#FFFFFF" d="M81.309,15.425V3.364h-3.501v15.334h9.554v-3.273H81.309z"/>
		<path fill="#FFFFFF" d="M93.16,15.425V3.364h-3.5v15.334h9.554v-3.273H93.16z"/>
		<path fill="#FFFFFF" d="M101.898,3.364v15.334h3.514V3.364H101.898z"/>
		<path fill="#FFFFFF" d="M116.985,3.364h-3.021l-6.697,15.334h2.267c0.221,0,0.443-0.038,0.665-0.101
			c0.222-0.07,0.431-0.165,0.621-0.292c0.196-0.126,0.367-0.268,0.519-0.432c0.152-0.165,0.272-0.349,0.361-0.538l0.729-1.703h6.097
			l0.747,1.703c0.095,0.217,0.215,0.405,0.367,0.576c0.146,0.165,0.315,0.304,0.5,0.424c0.184,0.121,0.386,0.209,0.605,0.268
			c0.215,0.063,0.443,0.095,0.678,0.095h2.256L116.985,3.364z M113.827,12.462l1.348-3.209c0.059-0.146,0.108-0.277,0.146-0.403
			c0.039-0.135,0.07-0.247,0.089-0.35c0.032-0.121,0.051-0.228,0.063-0.33c0.006,0.104,0.023,0.209,0.057,0.323
			c0.02,0.104,0.051,0.216,0.083,0.342c0.039,0.126,0.089,0.268,0.152,0.418l1.336,3.209H113.827z"/>
		<path fill="#FFFFFF" d="M135.992,3.364v9.681c0-0.019-0.014-0.068-0.032-0.156c-0.019-0.083-0.05-0.186-0.095-0.306
			s-0.096-0.241-0.152-0.38c-0.057-0.133-0.126-0.26-0.2-0.374l-5.363-7.851c-0.141-0.209-0.342-0.361-0.607-0.462
			c-0.266-0.103-0.563-0.152-0.903-0.152h-3.444v15.334h3.48V8.094l7.331,10.604h3.479V3.364H135.992z"/>
		<path fill="#FFFFFF" d="M154.872,14.355c-0.26-0.114-0.583-0.171-0.95-0.171c-0.479,0-0.903,0.127-1.283,0.38
			c-0.35,0.24-0.729,0.424-1.129,0.563c-0.403,0.141-0.836,0.208-1.292,0.208c-0.595,0-1.15-0.112-1.677-0.335
			c-0.525-0.222-0.995-0.53-1.394-0.924c-0.399-0.392-0.715-0.854-0.949-1.374c-0.234-0.524-0.355-1.083-0.355-1.678
			c0-0.589,0.121-1.152,0.355-1.671c0.234-0.525,0.551-0.981,0.949-1.374c0.396-0.389,0.867-0.697,1.394-0.924
			c0.524-0.229,1.082-0.344,1.677-0.344c0.449,0,0.883,0.07,1.279,0.203c0.405,0.142,0.785,0.329,1.142,0.57
			c0.386,0.266,0.814,0.393,1.283,0.393c0.351,0,0.665-0.057,0.938-0.184c0.285-0.127,0.524-0.298,0.741-0.506l0.912-0.912
			c-0.443-0.468-0.912-0.895-1.413-1.272c-0.493-0.38-1.008-0.694-1.537-0.962c-0.532-0.266-1.077-0.468-1.643-0.605
			c-0.563-0.146-1.133-0.215-1.703-0.215c-0.722,0-1.409,0.088-2.082,0.276c-0.672,0.186-1.299,0.443-1.887,0.785
			c-0.583,0.335-1.115,0.747-1.597,1.215c-0.477,0.477-0.886,1-1.229,1.583c-0.342,0.576-0.605,1.197-0.798,1.868
			c-0.188,0.665-0.276,1.355-0.276,2.077s0.088,1.412,0.276,2.083c0.19,0.665,0.456,1.292,0.798,1.868
			c0.344,0.576,0.755,1.102,1.229,1.577c0.479,0.475,1.014,0.88,1.597,1.222c0.588,0.336,1.215,0.595,1.887,0.785
			c0.673,0.184,1.36,0.277,2.082,0.277c0.57,0,1.142-0.074,1.703-0.215c0.563-0.146,1.108-0.348,1.643-0.612
			c0.529-0.262,1.044-0.583,1.537-0.964c0.501-0.373,0.97-0.798,1.413-1.266l-0.912-0.912
			C155.378,14.646,155.138,14.476,154.872,14.355z"/>
		<path fill="#FFFFFF" d="M169.478,6.644v-3.28h-10.206v15.334h10.206v-3.273h-6.711v-2.822h5.458V9.328h-5.458V6.644H169.478z"/>
		<path fill="#FFFFFF" d="M193.055,3.364c-0.234,0-0.464,0.032-0.689,0.095c-0.229,0.059-0.438,0.146-0.627,0.261
			c-0.196,0.112-0.367,0.26-0.513,0.431c-0.152,0.171-0.268,0.361-0.336,0.576l-2.665,7.673c-0.045,0.105-0.089,0.241-0.121,0.386
			c-0.031,0.146-0.059,0.285-0.083,0.412c-0.024,0.152-0.043,0.304-0.05,0.462c-0.021-0.165-0.044-0.323-0.076-0.468
			c-0.025-0.133-0.059-0.268-0.088-0.412c-0.031-0.139-0.07-0.272-0.104-0.38l-2.684-7.673c-0.075-0.196-0.186-0.388-0.322-0.553
			c-0.146-0.165-0.311-0.31-0.501-0.431c-0.189-0.114-0.393-0.209-0.627-0.279c-0.229-0.063-0.462-0.101-0.702-0.101h-3.83v15.334
			h3.501V8.467l3.934,10.231h3.03l3.862-10.231v10.231h3.495V3.364H193.055z"/>
		<path fill="#FFFFFF" d="M210.776,6.644v-3.28H200.57v15.334h10.206v-3.273h-6.705v-2.822h5.451V9.328h-5.451V6.644H210.776z"/>
		<path fill="#FFFFFF" d="M227.561,8.999c-0.186-0.65-0.443-1.26-0.779-1.83c-0.335-0.568-0.741-1.083-1.216-1.551
			c-0.477-0.469-0.993-0.867-1.563-1.203c-0.577-0.335-1.188-0.595-1.849-0.771c-0.658-0.186-1.342-0.279-2.045-0.279h-6.344v15.334
			h6.344c0.703,0,1.387-0.095,2.045-0.271c0.658-0.186,1.271-0.443,1.849-0.772c0.57-0.329,1.089-0.728,1.563-1.197
			c0.475-0.468,0.881-0.986,1.216-1.551c0.336-0.57,0.596-1.178,0.779-1.83c0.188-0.652,0.276-1.335,0.276-2.039
			C227.839,10.329,227.75,9.651,227.561,8.999z M223.989,12.652c-0.228,0.506-0.538,0.943-0.924,1.323
			c-0.395,0.374-0.842,0.671-1.352,0.887c-0.512,0.215-1.044,0.329-1.605,0.329h-2.851V6.878h2.851c0.563,0,1.096,0.108,1.605,0.323
			s0.957,0.513,1.352,0.895c0.386,0.38,0.696,0.821,0.924,1.328c0.228,0.509,0.342,1.046,0.342,1.614
			C224.331,11.608,224.217,12.146,223.989,12.652z"/>
		<path fill="#FFFFFF" d="M231.049,3.364v15.334h3.509V3.364H231.049z"/>
		<path fill="#FFFFFF" d="M246.136,3.364h-3.021l-6.698,15.334h2.269c0.221,0,0.44-0.038,0.664-0.101
			c0.221-0.07,0.431-0.165,0.62-0.292c0.195-0.126,0.365-0.268,0.52-0.432c0.158-0.165,0.272-0.349,0.361-0.538l0.728-1.703h6.097
			l0.748,1.703c0.097,0.217,0.217,0.405,0.367,0.576c0.146,0.165,0.316,0.304,0.5,0.424c0.186,0.121,0.386,0.209,0.603,0.268
			c0.223,0.063,0.448,0.095,0.685,0.095h2.254L246.136,3.364z M242.977,12.462l1.349-3.209c0.058-0.146,0.104-0.277,0.146-0.403
			c0.036-0.135,0.068-0.247,0.089-0.35c0.03-0.121,0.051-0.228,0.063-0.33c0.006,0.104,0.025,0.209,0.059,0.323
			c0.02,0.104,0.051,0.216,0.082,0.342c0.039,0.126,0.089,0.268,0.15,0.418l1.336,3.209H242.977z"/>
	</g>
	<path fill="#FFFFFF" d="M69.925,27.17c-0.201-0.469-0.475-0.875-0.821-1.223c-0.35-0.348-0.762-0.627-1.229-0.83
		c-0.469-0.201-0.962-0.303-1.495-0.303h-4.381v12.264h1.69V32.52h2.688c0.532,0,1.026-0.104,1.495-0.307
		c0.468-0.199,0.88-0.479,1.229-0.826c0.348-0.352,0.62-0.756,0.821-1.225c0.203-0.469,0.306-0.969,0.306-1.5
		C70.229,28.139,70.128,27.639,69.925,27.17z M68.368,29.512c-0.108,0.26-0.266,0.486-0.462,0.684
		c-0.197,0.197-0.424,0.348-0.69,0.463c-0.259,0.107-0.536,0.164-0.836,0.164H63.69v-4.311h2.688c0.3,0,0.577,0.057,0.836,0.163
		c0.268,0.112,0.494,0.267,0.69,0.462s0.354,0.432,0.462,0.689c0.114,0.26,0.171,0.545,0.171,0.836
		C68.539,28.967,68.482,29.247,68.368,29.512z"/>
	<path fill="#FFFFFF" d="M83.93,29.278c-0.146-0.531-0.354-1.031-0.635-1.494c-0.271-0.469-0.601-0.893-0.979-1.271
		c-0.374-0.383-0.798-0.703-1.269-0.979c-0.461-0.277-0.962-0.486-1.492-0.633c-0.539-0.152-1.091-0.221-1.666-0.221
		c-0.576,0-1.135,0.066-1.665,0.221c-0.532,0.146-1.032,0.354-1.5,0.633c-0.462,0.273-0.889,0.596-1.269,0.979
		c-0.379,0.379-0.702,0.803-0.975,1.271c-0.278,0.463-0.487,0.963-0.642,1.494c-0.145,0.531-0.221,1.09-0.221,1.666
		c0,0.867,0.165,1.678,0.495,2.438c0.329,0.762,0.778,1.426,1.341,1.988c0.57,0.568,1.234,1.021,1.995,1.35
		c0.754,0.32,1.571,0.486,2.438,0.486c0.574,0,1.127-0.068,1.666-0.223c0.53-0.146,1.03-0.361,1.492-0.633
		c0.471-0.271,0.895-0.604,1.269-0.98c0.38-0.375,0.709-0.799,0.979-1.268c0.279-0.461,0.488-0.963,0.635-1.494
		c0.15-0.531,0.222-1.088,0.222-1.664S84.082,29.809,83.93,29.278z M82.101,32.721c-0.241,0.559-0.57,1.039-0.982,1.449
		c-0.412,0.418-0.896,0.74-1.449,0.982c-0.551,0.24-1.146,0.359-1.777,0.359c-0.635,0-1.229-0.119-1.779-0.359
		c-0.557-0.242-1.038-0.564-1.45-0.982c-0.418-0.41-0.741-0.893-0.979-1.449c-0.241-0.551-0.361-1.146-0.361-1.777
		s0.12-1.229,0.361-1.779c0.239-0.559,0.563-1.039,0.979-1.449c0.412-0.418,0.895-0.74,1.45-0.98
		c0.551-0.24,1.146-0.361,1.779-0.361c0.633,0,1.229,0.121,1.777,0.361c0.552,0.24,1.038,0.563,1.449,0.98
		c0.412,0.41,0.741,0.893,0.982,1.449c0.239,0.551,0.359,1.146,0.359,1.779S82.341,32.172,82.101,32.721z"/>
	<path fill="#FFFFFF" d="M88.127,35.387V24.815h-1.694v12.264h6.988v-1.689L88.127,35.387L88.127,35.387z"/>
	<path fill="#FFFFFF" d="M100.993,30.766c-0.17-0.135-0.348-0.248-0.532-0.344c-0.188-0.096-0.386-0.188-0.576-0.271
		c-0.194-0.084-0.393-0.158-0.595-0.229c-0.203-0.068-0.406-0.146-0.602-0.229c-0.406-0.139-0.754-0.266-1.032-0.385
		c-0.285-0.121-0.513-0.248-0.69-0.381c-0.178-0.135-0.305-0.285-0.387-0.455c-0.082-0.173-0.121-0.382-0.121-0.627
		c0-0.209,0.051-0.406,0.158-0.592c0.108-0.178,0.253-0.336,0.431-0.469c0.179-0.127,0.387-0.232,0.62-0.303
		c0.24-0.076,0.494-0.115,0.762-0.115c0.201,0,0.41,0.051,0.639,0.146c0.233,0.094,0.457,0.221,0.678,0.387
		c0.209,0.133,0.45,0.195,0.722,0.195c0.313,0,0.591-0.104,0.83-0.313l0.438-0.322c-0.158-0.188-0.349-0.387-0.583-0.602
		c-0.235-0.209-0.5-0.404-0.791-0.582c-0.292-0.172-0.595-0.324-0.931-0.432c-0.33-0.113-0.665-0.171-1-0.171
		c-0.464,0-0.912,0.067-1.351,0.209c-0.441,0.146-0.835,0.349-1.178,0.62c-0.341,0.271-0.613,0.605-0.822,1
		s-0.314,0.844-0.314,1.344c0,0.545,0.095,1.006,0.291,1.373c0.188,0.365,0.441,0.678,0.76,0.932
		c0.315,0.252,0.678,0.469,1.077,0.646c0.403,0.179,0.814,0.351,1.239,0.521c0.285,0.115,0.569,0.223,0.868,0.33
		c0.291,0.105,0.559,0.24,0.797,0.393c0.235,0.158,0.433,0.343,0.577,0.559c0.146,0.215,0.224,0.494,0.224,0.822
		c0,0.342-0.076,0.646-0.234,0.904c-0.159,0.26-0.354,0.477-0.603,0.646c-0.24,0.178-0.514,0.311-0.805,0.396
		c-0.297,0.097-0.588,0.14-0.867,0.14c-0.342,0-0.646-0.052-0.91-0.149c-0.268-0.103-0.508-0.242-0.724-0.426l-0.14-0.107
		c-0.253-0.271-0.569-0.404-0.943-0.404c-0.228,0-0.456,0.063-0.67,0.195l-0.412,0.215c0.031,0.07,0.076,0.152,0.133,0.254
		c0.063,0.107,0.135,0.225,0.209,0.35c0.091,0.127,0.186,0.254,0.3,0.387c0.112,0.133,0.247,0.266,0.396,0.398
		c0.734,0.656,1.659,0.98,2.761,0.98c0.553,0,1.083-0.088,1.591-0.271c0.513-0.189,0.955-0.449,1.349-0.785
		c0.386-0.328,0.697-0.729,0.918-1.189c0.234-0.463,0.348-0.975,0.348-1.539C102.291,32.311,101.86,31.424,100.993,30.766z"/>
	<path fill="#FFFFFF" d="M104.532,24.815v12.264h1.69V24.815H104.532z M113.921,36.932l-4.387-5.92
		c-0.057-0.082-0.114-0.141-0.171-0.172c-0.05-0.037-0.075-0.057-0.088-0.068c0.013-0.006,0.039-0.025,0.088-0.063
		c0.058-0.039,0.115-0.096,0.171-0.178l4.217-5.717h-1.165c-0.33,0-0.627,0.063-0.88,0.193c-0.253,0.129-0.462,0.316-0.627,0.576
		l-3.431,4.654c-0.076,0.102-0.146,0.189-0.224,0.26c-0.068,0.063-0.133,0.119-0.194,0.158c-0.06,0.043-0.108,0.068-0.146,0.088
		c-0.044,0.021-0.068,0.025-0.068,0.025c0,0.006,0.023,0.02,0.068,0.039c0.038,0.018,0.088,0.051,0.146,0.088
		c0.063,0.037,0.126,0.096,0.194,0.158c0.076,0.068,0.146,0.146,0.224,0.245l3.71,5.003c0.171,0.26,0.373,0.449,0.633,0.581
		c0.253,0.13,0.545,0.19,0.874,0.19h1.165L113.921,36.932z"/>
	<path fill="#FFFFFF" d="M120.859,24.815h-1.651l-5.287,12.117l-0.063,0.146h0.975c0.272,0,0.515-0.07,0.734-0.215
		c0.222-0.141,0.38-0.33,0.479-0.57l0.85-1.947h6.268l0.854,1.947c0.105,0.248,0.266,0.438,0.486,0.576
		c0.217,0.139,0.456,0.209,0.724,0.209h0.979L120.859,24.815z M117.644,32.647l2.233-5.129c0.038-0.104,0.07-0.215,0.097-0.33
		c0.023-0.119,0.044-0.252,0.057-0.398c0.013,0.285,0.069,0.533,0.165,0.729l2.229,5.129L117.644,32.647L117.644,32.647z"/>
	<path fill="#FFFFFF" d="M34.801,32.125L34.801,32.125z"/>
	<g>
		<path fill="#FFFFFF" d="M51.918,20.362c-0.01,0.01-0.02,0.02-0.04,0.02c-1.05,0.669-3.21,2.7-5.31,4.98
			c-2.5,1.31-7.89,3.79-13.51,4.02c0.47-0.3,0.95-0.649,1.42-1.05c4.37-3.76,8.2-7.55,8.43-7.79c-0.67-0.41-1.35-1-2.06-1.82
			c-1.51-1.72-4.12-4.98-7.91-7.44c-0.55-0.36-2.77-1.65-3.33-1.92c-2.64-1.22-5.86-1.62-9.17-1.36c-1.85,0.1-2.4,0.32-5.04,0.84
			l-1.96,0.4c1.13-1.05,2.48-2.26,4.64-3.37c14.27-7.29,22.44,2.93,24.75,5.46c2.42,2.64,4.06,4.46,5.78,6.26
			C50.438,19.502,51.778,20.272,51.918,20.362z"/>
		<path fill="#FFFFFF" d="M42.448,30.002c-1.29,1.44-2.8,2.9-5.92,4.681c-13.52,7.71-23.73-3.58-25.01-5.16
			c-2.27-2.78-3.83-4.63-5.57-6.44c-1.94-2.02-3.12-2.77-3.12-2.77s0.01,0,0.01-0.01c0.01-0.01,0.02-0.02,0.03-0.02
			c0.72-0.66,3.76-3.7,5.84-5.94c3.54-1.56,8.31-3.05,12.73-3.21c-0.49,0.31-0.96,0.67-1.44,1.09c-4.49,3.9-8.39,7.92-8.39,7.92
			c-0.04-0.02-0.07-0.04-0.11-0.06c0.65,0.42,1.31,1.01,2,1.79c1.74,1.97,5.05,6.01,9.9,8.49c2.58,1.59,5.42,2.26,8.33,2.26
			C35.328,32.622,39.028,31.592,42.448,30.002z"/>
		<circle fill="#FFFFFF" cx="27.378" cy="20.269" r="6.248"/>
	</g>
</g>
</svg>
