<?xml version="1.0" encoding="utf-8"?>
<!-- Generator: Adobe Illustrator 16.0.0, SVG Export Plug-In . SVG Version: 6.00 Build 0)  -->
<!DOCTYPE svg PUBLIC "-//W3C//DTD SVG 1.1//EN" "http://www.w3.org/Graphics/SVG/1.1/DTD/svg11.dtd">
<svg version="1.1" id="Warstwa_1" xmlns="http://www.w3.org/2000/svg" xmlns:xlink="http://www.w3.org/1999/xlink" x="0px" y="0px"
	 width="250px" height="34.125px" viewBox="1 1.004 250 34.125" enable-background="new 1 1.004 250 34.125" xml:space="preserve">
<g>
	<path fill="#1F1B37" d="M67.799,1.147H64.78l-6.699,15.334h2.267c0.228,0,0.443-0.038,0.665-0.101
		c0.221-0.07,0.43-0.165,0.62-0.292c0.196-0.126,0.367-0.266,0.519-0.43c0.158-0.165,0.272-0.349,0.36-0.538l0.729-1.703h6.098
		l0.747,1.703c0.095,0.215,0.215,0.405,0.368,0.576c0.145,0.165,0.316,0.304,0.5,0.424c0.184,0.121,0.386,0.209,0.608,0.266
		c0.215,0.063,0.443,0.095,0.677,0.095h2.254L67.799,1.147z M64.641,10.245l1.349-3.209c0.057-0.146,0.108-0.279,0.146-0.405
		c0.039-0.133,0.07-0.247,0.088-0.348c0.032-0.121,0.051-0.228,0.064-0.33c0.006,0.102,0.024,0.209,0.057,0.323
		c0.019,0.102,0.051,0.216,0.082,0.342c0.039,0.126,0.089,0.266,0.152,0.418l1.336,3.209H64.641z"/>
	<path fill="#1F1B37" d="M79.481,13.208V1.147H75.98v15.334h9.554v-3.273H79.481z"/>
	<path fill="#1F1B37" d="M91.332,13.208V1.147h-3.5v15.334h9.554v-3.273H91.332z"/>
	<path fill="#1F1B37" d="M100.07,1.147v15.334h3.514V1.147H100.07z"/>
	<path fill="#1F1B37" d="M115.157,1.147h-3.02l-6.699,15.334h2.267c0.221,0,0.443-0.038,0.665-0.101
		c0.222-0.07,0.431-0.165,0.621-0.292c0.196-0.126,0.367-0.266,0.519-0.43c0.152-0.165,0.272-0.349,0.361-0.538l0.728-1.703h6.097
		l0.747,1.703c0.095,0.215,0.215,0.405,0.367,0.576c0.146,0.165,0.317,0.304,0.5,0.424c0.184,0.121,0.386,0.209,0.607,0.266
		c0.215,0.063,0.443,0.095,0.678,0.095h2.254L115.157,1.147z M111.999,10.245l1.348-3.209c0.057-0.146,0.108-0.279,0.145-0.405
		c0.039-0.133,0.07-0.247,0.089-0.348c0.032-0.121,0.051-0.228,0.063-0.33c0.006,0.102,0.025,0.209,0.057,0.323
		c0.02,0.102,0.051,0.216,0.083,0.342c0.039,0.126,0.089,0.266,0.152,0.418l1.336,3.209H111.999z"/>
	<path fill="#1F1B37" d="M134.164,1.147v9.681c0-0.019-0.014-0.07-0.032-0.158c-0.019-0.083-0.05-0.184-0.095-0.304
		c-0.045-0.12-0.096-0.241-0.152-0.38c-0.057-0.133-0.126-0.26-0.201-0.374l-5.363-7.851c-0.139-0.209-0.342-0.361-0.606-0.462
		s-0.563-0.152-0.903-0.152h-3.445v15.334h3.482V5.876l7.332,10.604h3.477V1.147H134.164z"/>
	<path fill="#1F1B37" d="M153.044,12.138c-0.26-0.114-0.583-0.171-0.95-0.171c-0.48,0-0.904,0.127-1.285,0.38
		c-0.348,0.24-0.729,0.424-1.127,0.563c-0.404,0.139-0.836,0.208-1.291,0.208c-0.596,0-1.152-0.114-1.678-0.335
		c-0.525-0.222-0.994-0.532-1.395-0.924c-0.398-0.392-0.715-0.854-0.948-1.374c-0.233-0.526-0.354-1.083-0.354-1.678
		c0-0.589,0.121-1.152,0.354-1.671c0.233-0.525,0.551-0.981,0.948-1.374c0.397-0.387,0.867-0.697,1.395-0.924
		c0.523-0.229,1.082-0.342,1.678-0.342c0.448,0,0.881,0.07,1.278,0.203c0.405,0.14,0.785,0.329,1.14,0.57
		c0.387,0.266,0.816,0.393,1.285,0.393c0.35,0,0.665-0.057,0.938-0.184c0.284-0.127,0.524-0.298,0.739-0.506l0.912-0.912
		c-0.441-0.468-0.912-0.893-1.412-1.272c-0.494-0.38-1.006-0.696-1.537-0.962c-0.531-0.266-1.076-0.468-1.641-0.607
		c-0.564-0.146-1.134-0.215-1.703-0.215c-0.723,0-1.412,0.088-2.084,0.278c-0.67,0.184-1.298,0.443-1.886,0.785
		c-0.583,0.335-1.114,0.747-1.597,1.215c-0.475,0.475-0.887,1-1.229,1.583c-0.343,0.576-0.607,1.197-0.799,1.868
		c-0.189,0.665-0.277,1.355-0.277,2.077c0,0.722,0.088,1.412,0.277,2.083c0.189,0.665,0.456,1.292,0.799,1.868
		c0.342,0.576,0.754,1.102,1.229,1.577c0.48,0.475,1.014,0.88,1.597,1.222c0.588,0.336,1.216,0.595,1.886,0.785
		c0.672,0.184,1.361,0.279,2.084,0.279c0.569,0,1.139-0.076,1.703-0.215c0.563-0.146,1.107-0.348,1.641-0.614
		c0.531-0.26,1.043-0.583,1.537-0.962c0.5-0.374,0.971-0.798,1.412-1.266l-0.912-0.912C153.55,12.429,153.311,12.258,153.044,12.138
		z"/>
	<path fill="#1F1B37" d="M167.648,4.426V1.147h-10.205v15.334h10.205v-3.273h-6.711v-2.824h5.459V7.111h-5.459V4.426H167.648z"/>
	<path fill="#1F1B37" d="M191.227,1.147c-0.232,0-0.461,0.032-0.688,0.095c-0.229,0.057-0.438,0.146-0.627,0.259
		c-0.196,0.114-0.367,0.26-0.514,0.431c-0.151,0.171-0.267,0.361-0.336,0.576l-2.666,7.673c-0.045,0.107-0.088,0.241-0.121,0.386
		c-0.029,0.146-0.057,0.285-0.082,0.412c-0.023,0.152-0.043,0.304-0.051,0.462c-0.019-0.165-0.043-0.323-0.076-0.468
		c-0.023-0.133-0.057-0.266-0.088-0.412c-0.029-0.139-0.068-0.272-0.103-0.38l-2.685-7.673c-0.074-0.196-0.185-0.386-0.321-0.551
		c-0.146-0.165-0.312-0.31-0.501-0.431c-0.189-0.114-0.393-0.209-0.627-0.279c-0.229-0.063-0.463-0.101-0.702-0.101h-3.83V16.48
		h3.501V6.25l3.932,10.231h3.032l3.862-10.231v10.231h3.495V1.147H191.227z"/>
	<path fill="#1F1B37" d="M208.947,4.426V1.147h-10.205v15.334h10.205v-3.273h-6.704v-2.824h5.45V7.111h-5.45V4.426H208.947z"/>
	<path fill="#1F1B37" d="M225.732,6.782c-0.186-0.652-0.443-1.26-0.779-1.83c-0.335-0.57-0.741-1.083-1.217-1.551
		c-0.475-0.469-0.992-0.867-1.563-1.203c-0.575-0.335-1.188-0.595-1.849-0.771c-0.658-0.184-1.344-0.279-2.047-0.279h-6.344v15.334
		h6.344c0.703,0,1.389-0.095,2.047-0.272c0.656-0.184,1.271-0.443,1.849-0.772c0.57-0.329,1.091-0.728,1.563-1.197
		c0.476-0.468,0.882-0.988,1.217-1.551c0.336-0.57,0.596-1.178,0.779-1.83c0.188-0.652,0.276-1.335,0.276-2.039
		C226.012,8.111,225.922,7.434,225.732,6.782z M222.161,10.435c-0.228,0.506-0.538,0.943-0.925,1.323
		c-0.394,0.374-0.842,0.671-1.35,0.887c-0.513,0.215-1.045,0.329-1.607,0.329h-2.848V4.661h2.848c0.563,0,1.097,0.108,1.607,0.323
		c0.508,0.215,0.956,0.513,1.35,0.893c0.387,0.38,0.697,0.823,0.925,1.33s0.342,1.044,0.342,1.614
		C222.503,9.391,222.389,9.928,222.161,10.435z"/>
	<path fill="#1F1B37" d="M229.221,1.147v15.334h3.508V1.147H229.221z"/>
	<path fill="#1F1B37" d="M244.309,1.147h-3.021l-6.698,15.334h2.268c0.222,0,0.441-0.038,0.664-0.101
		c0.222-0.07,0.432-0.165,0.619-0.292c0.197-0.126,0.367-0.266,0.521-0.43c0.156-0.165,0.271-0.349,0.359-0.538l0.729-1.703h6.099
		l0.748,1.703c0.094,0.215,0.215,0.405,0.365,0.576c0.146,0.165,0.314,0.304,0.5,0.424c0.186,0.121,0.387,0.209,0.602,0.266
		c0.224,0.063,0.451,0.095,0.686,0.095H251L244.309,1.147z M241.148,10.245l1.349-3.209c0.058-0.146,0.103-0.279,0.146-0.405
		c0.039-0.133,0.07-0.247,0.09-0.348c0.031-0.121,0.052-0.228,0.063-0.33c0.006,0.102,0.024,0.209,0.058,0.323
		c0.021,0.102,0.051,0.216,0.082,0.342c0.039,0.126,0.09,0.266,0.151,0.418l1.336,3.209H241.148z"/>
</g>
<path fill="#1F1B37" d="M68.097,24.954c-0.203-0.47-0.475-0.875-0.823-1.224c-0.348-0.35-0.76-0.627-1.228-0.83
	c-0.469-0.201-0.962-0.303-1.495-0.303H60.17v12.264h1.69v-4.559h2.69c0.532,0,1.026-0.104,1.495-0.305
	c0.468-0.203,0.88-0.48,1.228-0.83s0.62-0.752,0.823-1.223c0.203-0.469,0.304-0.969,0.304-1.5
	C68.401,25.92,68.3,25.42,68.097,24.954z M66.54,27.295c-0.108,0.26-0.266,0.486-0.462,0.684c-0.197,0.195-0.424,0.349-0.69,0.463
	c-0.259,0.105-0.538,0.164-0.836,0.164h-2.69v-4.313h2.69c0.298,0,0.577,0.059,0.836,0.166c0.266,0.111,0.494,0.266,0.69,0.461
	c0.196,0.195,0.354,0.432,0.462,0.689c0.114,0.26,0.171,0.545,0.171,0.836C66.711,26.75,66.654,27.029,66.54,27.295z"/>
<path fill="#1F1B37" d="M82.102,27.061c-0.146-0.531-0.354-1.031-0.633-1.494c-0.272-0.469-0.601-0.893-0.981-1.271
	c-0.374-0.381-0.798-0.702-1.267-0.978c-0.461-0.276-0.962-0.485-1.494-0.633c-0.539-0.151-1.089-0.223-1.666-0.223
	c-0.576,0-1.133,0.07-1.665,0.223c-0.532,0.146-1.032,0.354-1.5,0.633c-0.462,0.271-0.887,0.597-1.267,0.978
	c-0.379,0.379-0.702,0.804-0.975,1.271c-0.278,0.463-0.487,0.963-0.64,1.494c-0.145,0.531-0.221,1.09-0.221,1.666
	c0,0.867,0.165,1.678,0.495,2.438c0.329,0.76,0.778,1.424,1.341,1.986c0.57,0.57,1.234,1.021,1.995,1.35
	c0.754,0.322,1.571,0.486,2.438,0.486c0.576,0,1.127-0.068,1.666-0.221c0.532-0.146,1.032-0.361,1.494-0.634
	c0.469-0.272,0.893-0.603,1.267-0.981c0.38-0.373,0.709-0.797,0.981-1.267c0.279-0.463,0.488-0.963,0.633-1.493
	c0.152-0.533,0.222-1.09,0.222-1.666S82.254,27.592,82.102,27.061z M80.272,30.504c-0.241,0.559-0.57,1.039-0.982,1.451
	c-0.412,0.418-0.898,0.738-1.449,0.98c-0.551,0.239-1.146,0.358-1.779,0.358s-1.228-0.119-1.779-0.358
	c-0.557-0.242-1.038-0.563-1.45-0.98c-0.418-0.412-0.741-0.895-0.981-1.451c-0.241-0.551-0.361-1.146-0.361-1.777
	c0-0.633,0.12-1.229,0.361-1.779c0.241-0.559,0.563-1.038,0.981-1.448c0.412-0.418,0.893-0.742,1.45-0.981
	c0.551-0.24,1.146-0.361,1.779-0.361s1.229,0.121,1.779,0.361c0.551,0.239,1.038,0.563,1.449,0.981
	c0.412,0.41,0.741,0.892,0.982,1.448c0.241,0.552,0.361,1.146,0.361,1.779C80.634,29.359,80.513,29.956,80.272,30.504z"/>
<path fill="#1F1B37" d="M86.299,33.17V22.598h-1.696v12.264h6.99v-1.69L86.299,33.17L86.299,33.17z"/>
<path fill="#1F1B37" d="M99.165,28.547c-0.17-0.131-0.348-0.246-0.532-0.34c-0.189-0.098-0.386-0.189-0.576-0.271
	c-0.196-0.084-0.393-0.158-0.595-0.229c-0.203-0.067-0.406-0.146-0.602-0.228c-0.406-0.141-0.754-0.268-1.032-0.387
	c-0.285-0.121-0.513-0.248-0.69-0.381c-0.178-0.133-0.305-0.285-0.387-0.455c-0.082-0.172-0.121-0.381-0.121-0.627
	c0-0.209,0.051-0.406,0.158-0.59c0.108-0.178,0.253-0.336,0.431-0.469c0.177-0.127,0.385-0.234,0.62-0.305
	c0.24-0.076,0.494-0.113,0.76-0.113c0.203,0,0.412,0.051,0.639,0.146c0.235,0.095,0.457,0.222,0.678,0.388
	c0.209,0.133,0.45,0.194,0.722,0.194c0.311,0,0.589-0.103,0.83-0.312l0.437-0.321c-0.158-0.188-0.348-0.388-0.583-0.603
	c-0.235-0.209-0.5-0.404-0.791-0.582c-0.292-0.172-0.595-0.324-0.931-0.432c-0.33-0.113-0.665-0.172-1-0.172
	c-0.462,0-0.912,0.068-1.349,0.209c-0.443,0.146-0.835,0.35-1.178,0.621c-0.341,0.271-0.613,0.605-0.822,1s-0.316,0.842-0.316,1.342
	c0,0.547,0.095,1.008,0.291,1.375c0.19,0.367,0.443,0.678,0.76,0.932c0.317,0.252,0.678,0.469,1.077,0.646
	c0.405,0.179,0.816,0.351,1.241,0.521c0.285,0.115,0.569,0.223,0.868,0.33c0.291,0.106,0.557,0.239,0.797,0.393
	c0.235,0.158,0.431,0.342,0.577,0.559c0.146,0.215,0.222,0.492,0.222,0.822c0,0.342-0.076,0.646-0.234,0.904
	c-0.159,0.262-0.354,0.477-0.602,0.646c-0.241,0.18-0.513,0.313-0.804,0.4c-0.297,0.094-0.588,0.139-0.867,0.139
	c-0.342,0-0.646-0.051-0.912-0.15c-0.266-0.104-0.506-0.242-0.722-0.426l-0.14-0.107c-0.253-0.271-0.569-0.403-0.943-0.403
	c-0.228,0-0.456,0.063-0.67,0.194L92.46,32.62c0.031,0.069,0.076,0.151,0.133,0.254c0.063,0.106,0.133,0.224,0.209,0.349
	c0.089,0.127,0.184,0.254,0.298,0.387c0.114,0.135,0.247,0.268,0.398,0.397c0.734,0.658,1.659,0.981,2.761,0.981
	c0.551,0,1.083-0.088,1.589-0.272c0.513-0.188,0.956-0.448,1.349-0.784c0.386-0.328,0.697-0.728,0.918-1.188
	c0.234-0.465,0.348-0.977,0.348-1.539C100.462,30.094,100.032,29.208,99.165,28.547z"/>
<path fill="#1F1B37" d="M102.704,22.598v12.264h1.69V22.598H102.704z M112.093,34.715l-4.387-5.92
	c-0.057-0.082-0.114-0.141-0.171-0.17c-0.05-0.039-0.075-0.059-0.088-0.07c0.013-0.008,0.039-0.025,0.088-0.063
	c0.058-0.039,0.115-0.096,0.171-0.178l4.217-5.719h-1.165c-0.33,0-0.627,0.063-0.88,0.196c-0.253,0.127-0.462,0.315-0.627,0.576
	l-3.431,4.651c-0.076,0.103-0.146,0.189-0.222,0.26c-0.07,0.064-0.133,0.121-0.196,0.158c-0.058,0.045-0.108,0.068-0.146,0.09
	c-0.044,0.019-0.07,0.025-0.07,0.025c0,0.006,0.025,0.02,0.07,0.037c0.038,0.02,0.088,0.051,0.146,0.09
	c0.063,0.036,0.126,0.094,0.196,0.156c0.076,0.07,0.146,0.146,0.222,0.246l3.71,5.002c0.171,0.262,0.373,0.451,0.633,0.582
	c0.253,0.129,0.545,0.189,0.874,0.189h1.165L112.093,34.715z"/>
<path fill="#1F1B37" d="M119.031,22.598h-1.651l-5.287,12.117l-0.063,0.146h0.975c0.272,0,0.513-0.069,0.734-0.215
	c0.222-0.141,0.38-0.33,0.481-0.569l0.848-1.949h6.268l0.854,1.949c0.107,0.247,0.266,0.437,0.488,0.575
	c0.215,0.14,0.456,0.209,0.722,0.209h0.981L119.031,22.598z M115.815,30.43l2.235-5.129c0.038-0.104,0.07-0.215,0.095-0.33
	c0.025-0.119,0.044-0.252,0.057-0.398c0.013,0.285,0.069,0.533,0.165,0.73l2.229,5.127H115.815L115.815,30.43z"/>
<path fill="#29235C" d="M32.973,29.909"/>
<path fill="#1F1B37" d="M13.572,6.625c2.636-0.524,3.187-0.739,5.042-0.845c3.304-0.258,6.525,0.143,9.164,1.369
	C28.34,7.414,30.56,8.705,31.11,9.06c3.789,2.459,6.396,5.725,7.906,7.448c0.716,0.82,1.395,1.407,2.065,1.82
	c1.743,1.064,3.492,0.936,6.074,0.592c1.776-0.236,2.808-0.715,2.931-0.773c0.006,0,0.006-0.007,0.012-0.007
	c0,0-1.381-0.742-3.317-2.769c-1.723-1.8-3.36-3.617-5.776-6.258C38.691,6.585,30.516-3.634,16.251,3.657
	C14.093,4.76,12.74,5.968,11.61,7.026L13.572,6.625z"/>
<path fill="#1F1B37" d="M29.896,30.402c3.602,0,7.307-1.026,10.727-2.621c-1.291,1.445-2.807,2.906-5.925,4.681
	c-13.522,7.707-23.726-3.582-25.01-5.155c-2.265-2.777-3.833-4.636-5.563-6.437C2.181,18.85,1,18.094,1,18.094s0.006,0,0.014-0.007
	c0.115-0.071,1.129-0.626,2.885-0.942c2.239-0.401,3.969-0.446,5.751,0.709c0.006,0,0.012,0.006,0.019,0.013
	c0.646,0.42,1.304,1.006,1.995,1.789c1.742,1.97,5.054,6.009,9.9,8.486C24.145,29.73,26.985,30.402,29.896,30.402z"/>
<path fill="#1F1B37" d="M19.606,8.917c-0.483,0.31-0.96,0.665-1.438,1.084c-4.486,3.905-8.391,7.926-8.391,7.926
	c-0.04-0.021-0.071-0.039-0.111-0.059c-0.006-0.006-0.012-0.013-0.019-0.013c-1.949-1.078-3.931-1.033-5.913-0.594
	c-1.607,0.349-2.608,0.775-2.724,0.827c0.671-0.6,3.763-3.692,5.866-5.964C10.423,10.563,15.186,9.072,19.606,8.917z"/>
<path fill="#1F1B37" d="M50.085,18.147c-1.034,0.639-3.215,2.686-5.344,4.996c-2.504,1.316-7.895,3.795-13.51,4.021
	c0.471-0.305,0.949-0.65,1.414-1.053c4.37-3.756,8.204-7.551,8.436-7.784c0.007-0.007,0.013-0.013,0.013-0.013
	c1.711,0.95,4.674,0.833,6.313,0.484C49.027,18.457,49.976,18.18,50.085,18.147z"/>
<circle fill="#1F1B37" cx="25.55" cy="18.052" r="6.248"/>
</svg>
