<?xml version="1.0" encoding="utf-8"?>
<!-- Generator: Adobe Illustrator 16.0.0, SVG Export Plug-In . SVG Version: 6.00 Build 0)  -->
<!DOCTYPE svg PUBLIC "-//W3C//DTD SVG 1.1//EN" "http://www.w3.org/Graphics/SVG/1.1/DTD/svg11.dtd">
<svg version="1.1" id="Warstwa_1" xmlns="http://www.w3.org/2000/svg" xmlns:xlink="http://www.w3.org/1999/xlink" x="0px" y="0px"
	 width="1920px" height="1080px" viewBox="0 0 1920 1080" enable-background="new 0 0 1920 1080" xml:space="preserve">
<g>
	<defs>
		<rect id="SVGID_1_" x="0" width="1920" height="1080"/>
	</defs>
	<clipPath id="SVGID_2_">
		<use xlink:href="#SVGID_1_"  overflow="visible"/>
	</clipPath>
	<g clip-path="url(#SVGID_2_)">
		<path fill-rule="evenodd" clip-rule="evenodd" fill="#F4DAB5" d="M1327.932-0.745c197.606,0,395.211,0,592.811,0
			c0.998,2.07,0.475,4.275,0.475,6.403c0.033,196.389,0.025,392.776,0.033,589.142c0.233,3.232-2.055,5.17-3.992,7.128
			c-34.62,34.982-69.498,69.709-104.342,104.471c-29.281,29.223-58.387,58.638-87.702,87.825
			c-30.86,30.729-61.487,61.681-92.366,92.383c-28.042,27.876-55.9,55.927-83.842,83.901c-9.432,9.447-18.969,18.779-28.393,28.234
			c-4.24,4.248-8.307,8.641-12.223,13.18c-1.041,0.365-1.955,0.076-2.828-0.48c-29.063-30.037-59.077-59.145-88.509-88.824
			c-26.859-27.087-54.022-53.872-80.932-80.908c-26.437-26.562-52.973-53.015-79.468-79.51
			c-5.655-5.655-11.144-11.469-17.222-16.683c-1.058-0.897-1.763-1.979-1.796-3.435c0-0.532,0.107-1.03,0.299-1.528
			c5.081-7.668,11.981-13.798,17.736-20.925c17.424-21.58,30.904-45.331,40.409-71.351c7.003-19.17,11.658-38.949,13.621-59.228
			c3.742-38.69-0.848-76.4-14.695-112.849c-0.415-1.094-0.772-2.2-0.913-3.36c0.182-3.584-1.464-6.512-3.401-9.323
			c-10.313-20.619-21.649-40.557-36.558-58.35c-12.889-15.384-27.526-29.027-41.648-43.181
			c-38.859-38.96-77.779-77.872-116.666-116.799c-2.211-2.211-7.135-5.493-8.215-8.656c-0.199-2.047,3.252-2.055,4.473-3.444
			c1.1-1.25,2.314-2.403,3.493-3.584c1.149-1.151,2.295-2.303,3.452-3.455c73.638-73.647,147.293-147.285,220.916-220.959
			C1322.328,2.707,1324.813,0.583,1327.932-0.745z"/>
		<path fill-rule="evenodd" clip-rule="evenodd" fill="#F39208" d="M1238.799,741.202c-0.025,0.333-0.051,0.673-0.075,1.007
			c-0.847,2.179-1.954,4.1-3.667,5.821c-36.398,36.457-72.848,72.855-109.281,109.273c-30.071,30.054-60.192,60.059-90.246,90.131
			c-33.938,33.961-67.987,67.809-101.78,101.92c-9.152,9.23-18.408,18.371-27.66,27.51c-1.714,1.697-3.751,2.711-5.75,3.877
			c-143.53,0-287.061,0-430.59,0c-4.431-4.244-5.048-10.299-7.38-15.529c-1.369-5.254-3.368-10.326-4.677-15.6
			c-0.2-0.473-0.325-0.965-0.384-1.473c-0.179-2.893-1.425-5.496-2.229-8.225c-3.502-11.699-5.334-23.701-6.357-35.824
			c-0.336-3.975-0.107-7.992-0.56-11.975c0.133-7.662,0.062-15.33,0.008-22.98c0.448-10.701,0.854-21.404,3.684-31.824
			c0.208-0.764,0.366-1.537,0.457-2.328c2.826-16.316,7.729-32.06,13.825-47.41c12.72-32.058,31.48-60.183,55.863-84.558
			c71.838-71.833,143.668-143.674,215.508-215.503c1.771-1.768,3.466-3.613,5.434-5.174c2.798-2.12,5.117-4.714,7.279-7.459
			c51.947-51.958,103.887-103.917,155.852-155.851c1.867-1.866,3.543-4.028,6.261-4.814c0.489-0.037,0.962,0.046,1.423,0.216
			c12.612,11.646,24.35,24.184,36.676,36.117c12.937,12.524,25.13,25.763,38.22,38.146c11.728,11.098,22.569,23.145,34.178,34.396
			c15.671,15.197,31.104,30.652,46.364,46.236c13.646,13.938,27.544,27.626,41.355,41.39
			c36.957,36.832,73.497,74.088,110.837,110.528c5.007,4.89,9.787,10.014,14.944,14.761
			C1237.87,737.418,1239.006,738.974,1238.799,741.202z"/>
		<path fill-rule="evenodd" clip-rule="evenodd" fill="#209DD9" d="M618.954-0.745c76.104,0,156.874,0,232.979,0
			c1.984,2.885,39.01,36.698,40.486,39.447c0.64,2.964,13.887,8.999,13.559,15.531c-0.033,0.506-1.332,1.076-1.502,1.558
			c-5.477,7.335-11.749,14.004-17.434,21.17c-22.947,28.911-38.538,61.297-47.044,97.247c-5.331,22.545-7.778,45.361-6.551,68.388
			c1.295,24.337,5.809,48.137,14.14,71.251c8.326,23.098,19.906,44.321,33.896,64.35c1.909,2.731,4.196,5.176,6.276,7.78
			c1.346,1.693,2.785,3.364,2.715,5.738c-1.063,3.85-3.398,2.336-5.356,1.093c-4.506-2.86-8.385-6.562-12.695-9.712
			c-15.687-11.482-32.432-21.266-50.45-28.275c-20.931-8.142-42.53-14.816-65.042-16.741c-15.891-1.36-31.871-1.535-47.931-0.823
			c-17.555,0.782-34.424,4.698-51.081,9.052c-16.86,4.411-32.727,12.078-48.316,20.178c-15.198,7.896-28.528,18.287-41.975,28.595
			c-9.003,6.907-16.128,15.854-24.45,23.492c-7.837,7.198-14.531,15.564-22.918,22.179c-3.775,1.198-6.145,4.029-8.248,7.165
			c-0.256,0.391-0.571,0.723-0.934,1.019c-3.09,1.941-5.854,4.174-7.057,7.825c-6.091,7.838-13.737,14.183-20.562,21.314
			c-3.738,3.908-7.004,8.396-11.962,11.002c-3.529,1.534-6.111,3.992-7.48,7.642c-1.851,3.921-5.572,6.137-8.423,9.126
			c-8.732,9.156-17.951,17.831-26.63,27.04c-1.596,1.697-3.441,3.157-5.529,4.259c-3.559,1.504-6.075,4.05-7.556,7.617
			c-5.755,5.113-9.676,12.083-16.364,16.258c-3.61,1.662-6.372,4.141-7.688,8.011c-7.397,9.136-16.042,17.031-24.684,24.938
			c-1.268,1.158-2.853,1.625-4.603,1.387c-5.343-1.813-8.328-6.523-12.028-10.207c-31.738-31.602-63.302-63.376-95.036-94.981
			c-19.339-19.265-38.625-38.591-57.864-57.959c-0.839-1.36-5.223-3.572-6.436-4.67c-0.274-0.407,31.001-32.815,33.021-34.786
			c6.056-5.912,28.755-27.743,29.266-28.957c2.489-2.957,13.983-12.449,15.841-15.663c4.201-4.749,8.425-9.473,13.374-13.481
			c1.362-0.448,2.295-1.334,2.731-2.723c6.61-7.46,13.767-14.399,20.89-21.347c11.762-11.477,23.063-23.41,34.841-34.866
			c4.507-4.39,8.739-9.076,13.563-13.144c1.218-0.582,2.196-1.409,2.739-2.686c3.983-4.762,8.339-9.152,13.193-13.031
			c1.099-0.64,2.38-1.056,2.903-2.4c0.25-0.361,0.549-0.674,0.877-0.96c1.651-1.023,3.085-2.266,4.059-3.984
			c0.255-0.353,0.554-0.657,0.886-0.927c1.273-0.549,1.817-1.676,2.278-2.873c4.166-4.479,8.209-9.074,12.986-12.932
			c1.335-0.757,2.531-1.643,3.036-3.197c1.512-1.984,3.259-3.722,5.292-5.173c1.239-0.553,2.084-1.497,2.636-2.728
			c12.166-12.511,24.366-24.985,36.987-37.048c1.113-0.586,2.398-0.977,2.793-2.416c1.405-2.378,3.36-4.229,5.567-5.834
			c1.228-0.565,2.125-1.452,2.674-2.694c1.646-2.257,3.538-4.257,5.984-5.667c1.176-0.378,1.642-1.388,2.107-2.403
			c12.183-12.517,24.226-25.177,36.973-37.136c1.526-0.57,2.607-1.593,3.165-3.147c6.832-7.065,13.863-13.929,20.873-20.816
			c1.086-0.59,2.379-0.926,2.758-2.357c1.342-2.341,3.297-4.112,5.359-5.787c1.433-0.649,2.531-1.631,3.093-3.148
			c11.884-12.603,24.503-24.471,36.642-36.82c6.065-6.173,12.161-12.312,18.303-18.41c2.006-1.996,8.523-7.065,8.952-8.462
			C604.467,12.361,611.036,5.105,618.954-0.745z"/>
		<path fill-rule="evenodd" clip-rule="evenodd" fill="#0C7DBB" d="M503.726,454.369c2.758-2.585,5.284-5.397,8.003-8.017l0,0
			c2.617-2.724,5.443-5.235,8.006-8.011c10.286-10.021,21.085-19.577,30.735-30.176c13.177-14.47,28.852-25.538,44.845-36.479
			c12.445-8.52,26.071-14.541,39.65-20.636c16.815-7.551,67.843-18.887,104.084-17.688c78.292,2.59,126.04,40.361,136.928,47.767
			c3.186,2.162,21.595,16.702,27.32,22.682c0.838,0.878,8.501,9.435,8.227,10.71c-11.293,11.489-200.311,201.315-217.355,218.376
			c-57.871,57.918-116.005,115.564-173.57,173.794c-27.316,27.609-48.329,59.177-59.851,96.349
			c-9.14,28.6-17.828,59.346-5.209,125.492c4.304,22.561,15.174,46.453,16.032,52.209c-80.777,0-165.11,0-245.889,0
			c-0.901-1.914,2.981-4.775,4.111-5.906c12.339-12.324,24.271-25.066,37.19-36.807c1.435-0.699,2.544-1.73,3.223-3.195
			c2.395-3.092,5.273-5.654,8.436-7.932c2.188-0.781,3.713-2.229,4.417-4.49c2.054-3.41,4.935-6.037,8.033-8.451
			c1.431-0.68,2.494-1.729,3.173-3.176c6.553-7.35,13.455-14.369,20.865-20.873c1.442-0.682,2.498-1.746,3.18-3.191
			c7.773-8.303,15.282-16.865,24.412-23.77c2.025-0.664,3.418-2.045,4.358-3.924c0.22-0.416,0.499-0.766,0.806-1.1
			c1.115-0.863,1.768-2.063,2.42-3.258c4.504-5.605,9.942-10.297,14.903-15.453c12.972-13.506,24.24-28.292,33.525-44.573
			c0.746-1.314,1.535-2.58,2.551-3.692c1.879-1.364,2.502-3.427,3.066-5.538c5.543-11.193,10.819-22.554,14.845-34.362
			c4.671-13.689,8.583-27.609,10.587-42.03c1.991-14.354,4.324-28.673,3.734-43.178c-0.97-23.834-3.838-47.334-10.974-70.286
			c-6.578-21.17-38.438-82.978-60.789-100.14C363.27,593.599,493.04,465.047,503.726,454.369z"/>
		<path fill-rule="evenodd" clip-rule="evenodd" fill="#2B64AE" d="M192.718,427.504C189.254,422.884,8.226,243.606-1.9,231.573
			c0-76.104,0.029-152.209-0.095-228.314C-2.003-0.17-1.322-0.84,2.104-0.84C207.72-0.732,413.337-0.745,618.954-0.745"/>
		<path fill-rule="evenodd" clip-rule="evenodd" fill="#34305A" d="M227.417,1080.741c-75.103,0-150.209-0.027-225.312,0.1
			c-3.43,0.008-4.116-0.678-4.104-4.102c0.154-39.051,0.1-78.113,0.1-117.166c13.269-14.127,14.895-16.508,22.683-24.424
			c12.133-12.348,24.453-24.508,36.657-36.789c9.147-9.206,18.478-18.246,27.643-27.444c9.048-9.082,18.178-18.071,27.206-27.168
			c11.842-11.936,23.896-23.66,35.635-35.692c12.431-12.757,25.271-25.108,37.714-37.856c9.068-9.288,18.37-18.359,27.559-27.533
			c12.138-12.117,24.308-24.191,36.366-36.393c8.895-8.997,18.017-17.778,26.919-26.772c9.838-9.938,19.594-19.971,29.672-29.651
			c9.601-9.218,18.35-19.26,28.116-28.32c7.311-6.78,28.292-27.408,28.292-27.408c1.152,0.843,17.858,20.274,28.078,33.995
			c29.261,39.281,39.464,86.491,42.116,113.419c1.189,12.093,2.538,24.199,1.792,36.332c-1.278,20.934-7.861,70.62-32.344,116.126
			c-15.431,28.676-33.664,44.707-59.669,71.576C305.071,1004.563,240.909,1067.065,227.417,1080.741z"/>
		<path fill-rule="evenodd" clip-rule="evenodd" fill="#F9B233" d="M1505.563,1011.442c3.002-3.535,410.564-408.978,415.03-414.309
			c1.206,1.473,0.624,3.215,0.624,4.815c0.033,157.964,0.033,315.929,0.008,473.892c0,1.639,0.425,3.344-0.482,4.9
			c-114.82,0-229.649,0-344.469,0c-4.48-1.482-7.035-5.314-10.145-8.428c-5.132-5.131-10.694-9.844-15.143-15.648
			c-1.814-2.695-4.094-4.926-6.778-6.738C1532.106,1038.991,1504.741,1013.206,1505.563,1011.442z"/>
		<path fill-rule="evenodd" clip-rule="evenodd" fill="#F9BA53" d="M900.339,1080.741c9.256-8.975,54.06-54.957,70.069-70.922
			c27.765-27.701,55.591-55.342,83.326-83.084c30.187-30.213,149.214-149.559,178.629-178.921c1.995-1.997,4.307-4.75,6.436-6.612
			c11.735,10.994,55.776,56.191,68.642,69.049c21.479,21.471,125.964,125.799,139.402,139.063
			c10.744,10.592,58.228,59.482,59.336,61.311c0.572,1.342-22.67,23.754-24.599,26.463c-0.176,0.408-42.372,42.529-43.504,43.654
			C1258.833,1080.741,1079.59,1080.741,900.339,1080.741z"/>
		<path fill-rule="evenodd" clip-rule="evenodd" fill="#2453A1" d="M-1.9,959.573c0-113.156,0-226.313,0-339.465
			c2.22-4.205,5.914-7.223,9.19-10.417c12.133-11.816,24.013-23.893,35.992-35.862c11.742-11.729,23.377-23.584,35.123-35.307
			c9.385-9.363,46.574-46.312,55.625-55.567c6.147-6.292,32.654-32.84,39.798-39.767c5.001-4.853,17.718-16.592,19.572-16.376
			c0.676,0.33,164.453,162.695,169.161,167.309C362.922,594.756,1.535,959.315-1.9,959.573z"/>
		<path fill-rule="evenodd" clip-rule="evenodd" fill="#204597" d="M898.124,60.668c11.957-15.048,38.261-41.567,52.313-55.58
			c2.386-2.377,4.871-4.51,7.982-5.833c123.175,0,246.343,0,369.514,0c-19.268,19.364-38.497,38.769-57.806,58.088
			c-59.61,59.634-180.541,179.282-180.807,179.693c-0.275,0.404,0.473,1.035-0.009,1.102c-0.95-0.063-1.862-0.245-2.705-0.723
			c-7.559-7.652-15.068-15.36-22.694-22.949c-27.892-27.746-55.682-55.597-83.5-83.414c-23.126-23.126-46.293-46.213-69.348-69.41
			C909.226,59.792,895.924,62.815,898.124,60.668z"/>
		<path fill-rule="evenodd" clip-rule="evenodd" fill="#264A9B" d="M193.4,426.813c-5.353,5.153-11.062,9.993-15.968,15.54
			c-6.416,7.251-13.502,13.896-20.266,20.724c-6.18,6.236-12.669,12.424-18.985,18.603c-7.002,6.852-13.926,13.908-20.716,21.001
			c-3.68,3.842-7.871,7.771-11.618,11.638c-3.971,4.109-8.466,7.814-12.303,12.15c-3.061,3.459-6.47,7.106-10.179,10.232
			c-4.798,4.042-9.028,8.725-13.297,13.348c-3.043,3.296-6.341,6.383-9.472,9.612c-4.923,5.078-9.967,10.105-15.073,14.944
			c-3.559,3.373-7.239,6.929-10.699,10.375c-7.081,7.044-14.008,14.351-21.127,21.331c-4.885,4.786-8.731,11.135-15.597,13.797
			c0-129.511,0-259.021,0-388.536C9.685,241.88,124.41,356.26,131.557,363.458C146.148,378.16,193.208,424.622,193.4,426.813z"/>
		<path fill-rule="evenodd" clip-rule="evenodd" fill="#F39208" d="M1506.179,1010.624c0.648,0.318,69.813,69.523,70.095,70.117
			c-46.061,0-92.134,0-138.197,0C1438.751,1079.409,1505.503,1011.31,1506.179,1010.624z"/>
		<path fill-rule="evenodd" clip-rule="evenodd" fill="#1491CF" d="M961.398-0.745c-11.178,8.403-48.712,45.693-56.611,53.493
			c-3.325-3.714-56.66-53.974-56.203-53.832C882.964-1.083,927.016-0.745,961.398-0.745z"/>
		<path fill-rule="evenodd" clip-rule="evenodd" fill="#F9B233" d="M1089.32,237.037c13.529,13.431,28.216,27.23,41.712,40.69
			c22.305,22.241,44.575,44.52,66.854,66.792c16.198,16.19,32.98,31.854,48.439,48.723c36.451,43.302,52.417,80.557,57.159,102.362
			c7.393,25.164,10.384,50.845,9.339,76.935c-1.216,30.138-7.318,59.249-19.053,87.221c-8.525,20.343-36.094,63.213-54.971,81.442
			c-7.25-7.044-315.003-314.634-322.612-322.035c-1.311-1.276-4.663-4.087-4.663-4.646c-0.19-0.673,60.246-59.9,60.754-60.844
			c7.91-9.688,29.879-29.987,31.376-32.029c3.427-3.746,7.119-7.222,10.68-10.835c2.012-1.447,3.925-2.994,5.032-5.305
			c6.991-6.923,14.185-13.639,20.831-20.916c1.37-0.77,2.602-1.688,3.249-3.198c6.331-6.265,12.824-12.354,19.037-18.74
			c3.134-2.319,5.863-5.052,8.175-8.195c4.074-3.858,7.75-8.096,11.567-12.191C1084.27,240.072,1088.944,236.904,1089.32,237.037z"
			/>
		<path fill-rule="evenodd" clip-rule="evenodd" fill="#1E3F88" d="M911.524,414.521c-6.973-5.854-15.944-14.436-25.258-24.549
			c-8.892-11.434-14.355-22.053-21.545-34.67c-18.67-32.773-29.66-67.846-32.644-105.514c-3.722-47.089,3.983-92.392,26.632-133.585
			c22.325-40.6,44.721-62.021,46.077-63.456c0.635-0.009,183.956,184.122,184.533,184.288c-5.738,6.42-88.6,87.914-89.823,89.859
			C990.755,335.889,911.915,414.389,911.524,414.521z"/>
	</g>
</g>
</svg>
