<?xml version="1.0" encoding="UTF-8" standalone="no"?>
<!-- Created with Inkscape (http://www.inkscape.org/) -->

<svg
   version="1.1"
   id="svg5652"
   xml:space="preserve"
   width="682.66669"
   height="682.66669"
   viewBox="0 0 682.66669 682.66669"
   xmlns="http://www.w3.org/2000/svg"
   xmlns:svg="http://www.w3.org/2000/svg"><defs
     id="defs5656"><clipPath
       clipPathUnits="userSpaceOnUse"
       id="clipPath5666"><path
         d="M 0,512 H 512 V 0 H 0 Z"
         id="path5664" /></clipPath></defs><g
     id="g5658"
     transform="matrix(1.3333333,0,0,-1.3333333,0,682.66667)"><g
       id="g5660"><g
         id="g5662"
         clip-path="url(#clipPath5666)"><g
           id="g5668"
           transform="translate(27.5,269.8936)"><path
             d="M 0,0 V 194.149"
             style="fill:none;stroke:#000000;stroke-width:15;stroke-linecap:round;stroke-linejoin:round;stroke-miterlimit:10;stroke-dasharray:none;stroke-opacity:1"
             id="path5670" /></g><g
           id="g5672"
           transform="translate(27.5,47.7236)"><path
             d="M 0,0 V 194.468"
             style="fill:none;stroke:#000000;stroke-width:15;stroke-linecap:round;stroke-linejoin:round;stroke-miterlimit:10;stroke-dasharray:none;stroke-opacity:1"
             id="path5674" /></g><g
           id="g5676"
           transform="translate(242.2339,27.5)"><path
             d="M 0,0 H -194.447"
             style="fill:none;stroke:#000000;stroke-width:15;stroke-linecap:round;stroke-linejoin:round;stroke-miterlimit:10;stroke-dasharray:none;stroke-opacity:1"
             id="path5678" /></g><g
           id="g5680"
           transform="translate(384.4692,27.5)"><path
             d="M 0,0 H -114.789"
             style="fill:none;stroke:#000000;stroke-width:15;stroke-linecap:round;stroke-linejoin:round;stroke-miterlimit:10;stroke-dasharray:none;stroke-opacity:1"
             id="path5682" /></g><g
           id="g5684"
           transform="translate(464.2554,27.5)"><path
             d="M 0,0 H -44.729"
             style="fill:none;stroke:#000000;stroke-width:15;stroke-linecap:round;stroke-linejoin:round;stroke-miterlimit:10;stroke-dasharray:none;stroke-opacity:1"
             id="path5686" /></g><g
           id="g5688"
           transform="translate(484.5,242.3828)"><path
             d="M 0,0 V -194.702"
             style="fill:none;stroke:#000000;stroke-width:15;stroke-linecap:round;stroke-linejoin:round;stroke-miterlimit:10;stroke-dasharray:none;stroke-opacity:1"
             id="path5690" /></g><g
           id="g5692"
           transform="translate(484.5,464.3828)"><path
             d="M 0,0 V -194.809"
             style="fill:none;stroke:#000000;stroke-width:15;stroke-linecap:round;stroke-linejoin:round;stroke-miterlimit:10;stroke-dasharray:none;stroke-opacity:1"
             id="path5694" /></g><g
           id="g5696"
           transform="translate(269.6382,484.5)"><path
             d="M 0,0 H 194.745"
             style="fill:none;stroke:#000000;stroke-width:15;stroke-linecap:round;stroke-linejoin:round;stroke-miterlimit:10;stroke-dasharray:none;stroke-opacity:1"
             id="path5698" /></g><g
           id="g5700"
           transform="translate(132.5942,484.5)"><path
             d="M 0,0 H 109.746"
             style="fill:none;stroke:#000000;stroke-width:15;stroke-linecap:round;stroke-linejoin:round;stroke-miterlimit:10;stroke-dasharray:none;stroke-opacity:1"
             id="path5702" /></g><g
           id="g5704"
           transform="translate(47.8086,484.5)"><path
             d="M 0,0 H 48.725"
             style="fill:none;stroke:#000000;stroke-width:15;stroke-linecap:round;stroke-linejoin:round;stroke-miterlimit:10;stroke-dasharray:none;stroke-opacity:1"
             id="path5706" /></g><path
           d="m 47.5,504.5 h -40 v -40 h 40 z"
           style="fill:none;stroke:#000000;stroke-width:15;stroke-linecap:round;stroke-linejoin:round;stroke-miterlimit:10;stroke-dasharray:none;stroke-opacity:1"
           id="path5708" /><path
           d="m 504.5,504.5 h -40 v -40 h 40 z"
           style="fill:none;stroke:#000000;stroke-width:15;stroke-linecap:round;stroke-linejoin:round;stroke-miterlimit:10;stroke-dasharray:none;stroke-opacity:1"
           id="path5710" /><path
           d="m 498,269.5 h -27 v -27 h 27 z"
           style="fill:none;stroke:#000000;stroke-width:15;stroke-linecap:round;stroke-linejoin:round;stroke-miterlimit:10;stroke-dasharray:none;stroke-opacity:1"
           id="path5712" /><path
           d="M 41,269.5 H 14 v -27 h 27 z"
           style="fill:none;stroke:#000000;stroke-width:15;stroke-linecap:round;stroke-linejoin:round;stroke-miterlimit:10;stroke-dasharray:none;stroke-opacity:1"
           id="path5714" /><path
           d="m 269.5,498 h -27 v -27 h 27 z"
           style="fill:none;stroke:#000000;stroke-width:15;stroke-linecap:round;stroke-linejoin:round;stroke-miterlimit:10;stroke-dasharray:none;stroke-opacity:1"
           id="path5716" /><path
           d="m 269.5,41 h -27 V 14 h 27 z"
           style="fill:none;stroke:#000000;stroke-width:15;stroke-linecap:round;stroke-linejoin:round;stroke-miterlimit:10;stroke-dasharray:none;stroke-opacity:1"
           id="path5718" /><path
           d="m 47.5,47.5 h -40 v -40 h 40 z"
           style="fill:none;stroke:#000000;stroke-width:15;stroke-linecap:round;stroke-linejoin:round;stroke-miterlimit:10;stroke-dasharray:none;stroke-opacity:1"
           id="path5720" /><path
           d="m 504.5,47.5 h -40 v -40 h 40 z"
           style="fill:none;stroke:#000000;stroke-width:15;stroke-linecap:round;stroke-linejoin:round;stroke-miterlimit:10;stroke-dasharray:none;stroke-opacity:1"
           id="path5722" /><g
           id="g5724"
           transform="translate(178.0566,209.6914)"><path
             d="M 0,0 53.62,153.854 78.022,84.274 107.582,0 Z m 116.117,125.472 -28.266,80.58 c -1.545,4.38 -5.401,7.457 -9.914,8.077 -0.536,0.073 -1.083,0.109 -1.643,0.109 h -45.36 c -5.194,0 -9.829,-3.284 -11.556,-8.186 L -93.276,-115.099 c -1.12,-3.187 1.253,-6.52 4.622,-6.52 h 37.199 c 2.676,0 5.206,0.876 7.262,2.385 1.885,1.386 3.369,3.308 4.221,5.595 l 5.238,14.095 m 12.27,33.017 6.139,16.519 h 140.049 l 23.403,-63.595 c 1.765,-4.817 6.363,-8.016 11.496,-8.016 h 37.259 c 1.813,0 3.346,0.961 4.185,2.36 0.73,1.193 0.949,2.689 0.438,4.16 L 127.747,92.317"
             style="fill:none;stroke:#000000;stroke-width:15;stroke-linecap:round;stroke-linejoin:round;stroke-miterlimit:10;stroke-dasharray:none;stroke-opacity:1"
             id="path5726" /></g><g
           id="g5728"
           transform="translate(210.3892,159.6836)"><path
             d="m 0,0 -23.647,-63.631 c -1.789,-4.793 -6.362,-7.98 -11.483,-7.98 h -48.658"
             style="fill:none;stroke:#000000;stroke-width:15;stroke-linecap:round;stroke-linejoin:round;stroke-miterlimit:10;stroke-dasharray:none;stroke-opacity:1"
             id="path5730" /></g><g
           id="g5732"
           transform="translate(256.0786,293.9658)"><path
             d="M 0,0 -29.365,-84.274"
             style="fill:none;stroke:#000000;stroke-width:15;stroke-linecap:round;stroke-linejoin:round;stroke-miterlimit:10;stroke-dasharray:none;stroke-opacity:1"
             id="path5734" /></g><g
           id="g5736"
           transform="translate(254.3511,423.9297)"><path
             d="m 0,0 h 3.297 45.361 c 5.194,0 9.828,-3.284 11.556,-8.187 l 112.654,-321.15 c 1.119,-3.187 -1.241,-6.52 -4.623,-6.52 h -48.657"
             style="fill:none;stroke:#000000;stroke-width:15;stroke-linecap:round;stroke-linejoin:round;stroke-miterlimit:10;stroke-dasharray:none;stroke-opacity:1"
             id="path5738" /></g></g></g></g></svg>
