<svg id="Layer_11" enable-background="new 0 0 2000 2000" height="512" viewBox="0 0 2000 2000" width="512" xmlns="http://www.w3.org/2000/svg"><path d="m1823.001 465.828h-559.364c63.905-211.016 77.67-367.43 78.526-377.83.875-10.63-3.698-20.981-12.147-27.489-.305-.234-.638-.417-.949-.64-10.384-7.774-24.272-8.24-35.008-1.779-26.2 9.85-129.954 51.069-256.686 130.717-56.325 35.4-121.763 81.574-187.65 138.841-4.934 2.462-9.033 6.133-12.012 10.561-42.561 37.855-85.082 80.342-125.249 127.619h-534.494c-97.596 0-176.996 79.402-176.996 176.999v130.254c-.612 2.446-.972 4.991-.972 7.627s.36 5.181.971 7.627v981.057c0 97.597 79.4 176.999 176.996 176.999h1645.034c97.596 0 176.999-79.402 176.999-176.999v-1126.565c0-97.596-79.402-176.999-176.999-176.999zm-778.456 364.846-159.538 35.814c-16.941 3.803-27.591 20.62-23.788 37.56 3.283 14.625 16.26 24.561 30.646 24.561 2.279 0 4.597-.249 6.915-.771l103.049-23.134c-148.939 244.452-338.374 422.655-446.219 512.926 177.304-394.383 351.115-695.062 477.347-893.081 96.56-151.477 177.419-262.396 230.939-331.913-24.39 138.518-83.689 388.826-219.351 638.038zm-199.126-414.117 15.827 69.239c3.329 14.572 16.283 24.443 30.619 24.443 2.32 0 4.676-.261 7.035-.798 16.926-3.868 27.51-20.727 23.642-37.652l-23.672-103.56c59.93-51.276 119.216-92.96 170.569-125.31 49.519-31.194 95.69-56.353 134.681-75.874-53.816 70.588-131.004 177.638-223.152 322.086-125.986 197.492-298.823 496.032-475.546 886.844-2.543-43.307-3.797-95.468-1.561-153.443 4.023-104.347 20.268-242.841 68.386-384.012l17.841 119.537c2.33 15.6 15.744 26.802 31.057 26.802 1.543 0 3.106-.115 4.68-.349 17.172-2.564 29.015-18.563 26.453-35.733l-33.555-224.819c10.841-22.759 22.609-45.373 35.495-67.691 53.92-93.391 121.524-173.137 191.201-239.71zm-781.571 226.27c0-62.927 51.193-114.122 114.12-114.122h484.752c-22.312 30.36-43.469 62.375-62.953 96.123-14.083 24.392-26.916 49.095-38.69 73.941-2.75 3.594-4.71 7.774-5.713 12.269-5.832 12.719-11.39 25.467-16.666 38.231h-474.85zm1873.275 1126.566c0 62.927-51.195 114.122-114.122 114.122h-1645.033c-62.927 0-114.12-51.195-114.12-114.122v-957.246h451c-52.318 150.867-69.721 298.73-73.883 409.671-4.824 128.586 6.456 228.248 12.622 271.249-36.054 83.227-72.096 170.245-107.762 260.979-6.353 16.161 1.598 34.409 17.757 40.76 3.776 1.485 7.668 2.187 11.494 2.187 12.545 0 24.4-7.56 29.266-19.945 32.534-82.766 65.379-162.388 98.254-238.847 1.18-.611 2.349-1.254 3.458-2.022 13.912-9.636 343.296-240.524 571.377-635.57 17.038-29.511 32.978-59.05 47.93-88.463h811.761v957.247zm0-1020.123h-781.186c35.399-76.18 64.22-150.66 87.65-220.564h579.415c62.927 0 114.122 51.195 114.122 114.122v106.442zm-291.495-136.166h-37.235c-17.364 0-31.438 14.076-31.438 31.438s14.075 31.438 31.438 31.438h37.235c17.364 0 31.438-14.076 31.438-31.438.001-17.361-14.074-31.438-31.438-31.438zm163.442 0h-37.237c-17.364 0-31.438 14.076-31.438 31.438s14.075 31.438 31.438 31.438h37.237c17.364 0 31.438-14.076 31.438-31.438.001-17.361-14.074-31.438-31.438-31.438zm-1339.063 1121.005c-17.363 0-31.439 14.076-31.439 31.438s14.075 31.439 31.439 31.439h643.378c17.363 0 31.438-14.076 31.438-31.439 0-17.362-14.075-31.438-31.438-31.438z"/></svg>