<?xml version="1.0" encoding="utf-8"?>
<!-- Generator: Adobe Illustrator 16.0.0, SVG Export Plug-In . SVG Version: 6.00 Build 0)  -->
<!DOCTYPE svg PUBLIC "-//W3C//DTD SVG 1.1//EN" "http://www.w3.org/Graphics/SVG/1.1/DTD/svg11.dtd">
<svg version="1.1" id="Warstwa_1" xmlns="http://www.w3.org/2000/svg" xmlns:xlink="http://www.w3.org/1999/xlink" x="0px" y="0px"
	 width="77.55px" height="53.778px" viewBox="0 0 77.55 53.778" enable-background="new 0 0 77.55 53.778" xml:space="preserve">
<g>
	<path fill-rule="evenodd" clip-rule="evenodd" fill="none" d="M77.55,26.947c-0.01,0-0.01,0.01-0.021,0.01
		c-1.63,1.01-5.079,4.24-8.439,7.89c-3.96,2.08-12.47,6-21.34,6.351c0.739-0.48,1.5-1.03,2.229-1.66
		c6.9-5.93,12.96-11.93,13.33-12.29c-1.06-0.66-2.13-1.58-3.27-2.88c-2.38-2.72-6.5-7.88-12.48-11.76
		c-0.87-0.561-4.38-2.601-5.27-3.021c-4.16-1.939-9.25-2.569-14.471-2.16c-2.93,0.17-3.8,0.511-7.96,1.33l-3.1,0.641
		c1.78-1.681,3.92-3.58,7.33-5.32c22.53-11.521,35.439,4.62,39.09,8.61c3.82,4.17,6.41,7.04,9.13,9.89
		C75.37,25.777,77.55,26.947,77.55,26.947z"/>
	<path fill-rule="evenodd" clip-rule="evenodd" fill="none" d="M62.58,42.177c-2.04,2.28-4.431,4.591-9.36,7.391
		c-21.35,12.17-37.47-5.66-39.5-8.15c-3.58-4.38-6.05-7.32-8.79-10.16C1.859,28.067,0,26.877,0,26.877s0.01,0,0.02-0.01
		c1.061-0.95,5.94-5.83,9.26-9.42c5.601-2.47,13.131-4.82,20.11-5.07c-0.77,0.49-1.52,1.05-2.27,1.72
		c-7.091,6.16-13.261,12.521-13.261,12.521c-0.06-0.04-0.109-0.07-0.17-0.1c1.021,0.659,2.061,1.59,3.15,2.819
		c2.75,3.11,7.979,9.49,15.64,13.41c4.08,2.51,8.561,3.57,13.16,3.57C51.33,46.317,57.18,44.697,62.58,42.177z"/>
	<circle fill-rule="evenodd" clip-rule="evenodd" fill="none" cx="38.775" cy="26.808" r="9.868"/>
</g>
</svg>
