<?xml version="1.0" encoding="utf-8"?>
<!-- Generator: Adobe Illustrator 16.0.0, SVG Export Plug-In . SVG Version: 6.00 Build 0)  -->
<!DOCTYPE svg PUBLIC "-//W3C//DTD SVG 1.1//EN" "http://www.w3.org/Graphics/SVG/1.1/DTD/svg11.dtd">
<svg version="1.1" id="Warstwa_1" xmlns="http://www.w3.org/2000/svg" xmlns:xlink="http://www.w3.org/1999/xlink" x="0px" y="0px"
	 width="49.098px" height="34.051px" viewBox="1 1.077 49.098 34.051" enable-background="new 1 1.077 49.098 34.051"
	 xml:space="preserve">
<path fill="#29235C" d="M32.973,29.909"/>
<path fill="#FFFFFF" d="M13.572,6.625c2.636-0.522,3.187-0.737,5.042-0.845c3.304-0.258,6.525,0.143,9.164,1.369
	C28.34,7.414,30.56,8.705,31.11,9.06c3.789,2.459,6.396,5.725,7.906,7.446c0.716,0.82,1.395,1.407,2.065,1.82
	c1.743,1.064,3.492,0.938,6.074,0.592c1.776-0.234,2.808-0.715,2.931-0.771c0.006,0,0.006-0.007,0.012-0.007
	c0,0-1.381-0.742-3.317-2.771c-1.723-1.8-3.36-3.617-5.776-6.258C38.691,6.585,30.516-3.634,16.251,3.657
	C14.093,4.76,12.74,5.969,11.61,7.026L13.572,6.625z"/>
<path fill="#FFFFFF" d="M29.896,30.402c3.602,0,7.307-1.026,10.727-2.621c-1.291,1.445-2.807,2.906-5.925,4.681
	c-13.522,7.707-23.726-3.582-25.01-5.153c-2.265-2.777-3.833-4.638-5.563-6.438C2.181,18.85,1,18.094,1,18.094s0.006,0,0.014-0.009
	c0.115-0.069,1.129-0.626,2.885-0.94c2.239-0.401,3.969-0.446,5.751,0.709c0.006,0,0.012,0.006,0.019,0.013
	c0.646,0.42,1.304,1.006,1.995,1.789c1.742,1.97,5.054,6.009,9.9,8.486C24.145,29.73,26.985,30.402,29.896,30.402z"/>
<path fill="#FFFFFF" d="M19.606,8.917c-0.483,0.312-0.96,0.665-1.438,1.084c-4.486,3.905-8.391,7.928-8.391,7.928
	c-0.04-0.021-0.071-0.039-0.111-0.061c-0.006-0.006-0.012-0.013-0.019-0.013c-1.949-1.078-3.931-1.033-5.913-0.594
	c-1.607,0.349-2.608,0.773-2.724,0.825c0.671-0.6,3.763-3.69,5.866-5.964C10.423,10.563,15.186,9.072,19.606,8.917z"/>
<path fill="#FFFFFF" d="M50.085,18.147c-1.034,0.639-3.215,2.686-5.344,4.996c-2.504,1.314-7.895,3.795-13.51,4.021
	c0.471-0.305,0.949-0.648,1.414-1.053c4.37-3.756,8.204-7.551,8.436-7.784c0.007-0.007,0.013-0.013,0.013-0.013
	c1.711,0.95,4.674,0.833,6.313,0.482C49.027,18.457,49.976,18.18,50.085,18.147z"/>
<circle fill="#FFFFFF" cx="25.55" cy="18.052" r="6.248"/>
</svg>
